<svg xmlns="http://www.w3.org/2000/svg" width="129.399" height="127.269" viewBox="0 0 129.399 127.269">
  <g id="그룹_5325" data-name="그룹 5325" transform="translate(1230.487 -658.282)">
    <g id="그룹_5284" data-name="그룹 5284">
      <g id="그룹_5282" data-name="그룹 5282">
        <path id="패스_5694" data-name="패스 5694" d="M-1209.392,768.987c4.88,6.451,13.433,9.736,13.433,9.736a27.313,27.313,0,0,0,15.562,1.188c8.063-2,9.125-20.25,9.125-20.25l-26.127-7.092" fill="#662d11"/>
        <path id="패스_5695" data-name="패스 5695" d="M-1186,782.073a29.391,29.391,0,0,1-10.544-1.969c-.316-.122-8.961-3.5-14.042-10.211l2.393-1.811c4.554,6.021,12.693,9.209,12.775,9.24a26.013,26.013,0,0,0,14.663,1.132c5.292-1.312,7.386-12.256,7.9-17.672l-24.929-6.766.786-2.9,27.3,7.41-.071,1.216c-.115,1.982-1.383,19.417-10.261,21.619A24.787,24.787,0,0,1-1186,782.073Z"/>
      </g>
      <g id="그룹_5283" data-name="그룹 5283">
        <path id="패스_5696" data-name="패스 5696" d="M-1207.3,771.338c-4.152-3.818-5.743-9.288-3.528-13.646,2.258-4.445,7.786-6.374,13.434-5.125" fill="#662d11"/>
        <path id="패스_5697" data-name="패스 5697" d="M-1208.32,772.442c-4.765-4.383-6.312-10.584-3.85-15.429,2.527-4.973,8.6-7.343,15.1-5.91l-.648,2.929c-5.147-1.139-9.876.607-11.773,4.34-1.846,3.633-.558,8.4,3.206,11.861Z"/>
      </g>
    </g>
    <g id="그룹_5287" data-name="그룹 5287">
      <g id="그룹_5285" data-name="그룹 5285">
        <path id="패스_5698" data-name="패스 5698" d="M-1137.871,784.021c8.061-.671,15.412-6.14,15.412-6.14a27.324,27.324,0,0,0,9.329-12.514c2.623-7.881-12.228-18.542-12.228-18.542l-19.968,18.28" fill="#662d11"/>
        <path id="패스_5699" data-name="패스 5699" d="M-1137.746,785.517l-.249-2.991c7.522-.627,14.571-5.8,14.641-5.849a26.026,26.026,0,0,0,8.8-11.783c1.725-5.183-6.4-12.8-10.706-16.124l-19.053,17.442-2.026-2.213,20.866-19.1.989.71c1.613,1.158,15.665,11.555,12.777,20.235a28.632,28.632,0,0,1-9.9,13.274C-1121.878,779.318-1129.355,784.816-1137.746,785.517Z"/>
      </g>
      <g id="그룹_5286" data-name="그룹 5286">
        <path id="패스_5700" data-name="패스 5700" d="M-1134.767,783.515c-5.447,1.465-10.92-.117-13.417-4.319-2.547-4.286-1.22-9.988,2.857-14.092" fill="#662d11"/>
        <path id="패스_5701" data-name="패스 5701" d="M-1138.725,785.551c-4.581,0-8.625-2.016-10.748-5.588-2.85-4.8-1.612-11.192,3.082-15.916l2.128,2.115c-3.714,3.737-4.771,8.668-2.631,12.268,2.082,3.505,6.8,4.965,11.737,3.636l.779,2.9A16.752,16.752,0,0,1-1138.725,785.551Z"/>
      </g>
    </g>
    <g id="그룹_5288" data-name="그룹 5288">
      <path id="패스_5702" data-name="패스 5702" d="M-1112,716.1a66.235,66.235,0,0,0-2.117-10.009,39.208,39.208,0,0,0-6.987-12.855,18.685,18.685,0,0,0,4.38-11.962c0-10.773-9.283-19.506-20.735-19.506-9.815,0-18.017,6.422-20.167,15.038-1.3-9.6-9.994-17.022-20.549-17.022a21.746,21.746,0,0,0-8.761,1.821,19.474,19.474,0,0,0-11.975,17.685,19.087,19.087,0,0,0,8.167,15.489c-5.22,7.282-15.334,26.158-2.773,50.834,0,0,8.284,17.132,34.558,18.319,0,0,28.9,1.866,41.03-14.927q.5-.687.949-1.4" fill="#662d11"/>
      <path id="패스_5703" data-name="패스 5703" d="M-1156.142,765.5c-1.655,0-2.7-.062-2.915-.075-26.829-1.213-35.457-18.431-35.812-19.163-12.322-24.206-3.311-43.115,2.079-51.169a20.353,20.353,0,0,1-7.622-15.808,21.043,21.043,0,0,1,12.872-19.058,23.147,23.147,0,0,1,9.364-1.948,22.267,22.267,0,0,1,20.809,13.64,22.279,22.279,0,0,1,19.907-11.656c12.261,0,22.235,9.423,22.235,21.006a19.966,19.966,0,0,1-3.952,11.928,41.311,41.311,0,0,1,6.5,12.459,67.575,67.575,0,0,1,2.165,10.233l-2.971.412a65.706,65.706,0,0,0-2.061-9.76,37.963,37.963,0,0,0-6.685-12.319,1.5,1.5,0,0,1-.029-1.947,17.106,17.106,0,0,0,4.036-11.006c0-9.928-8.629-18.006-19.235-18.006-8.975,0-16.67,5.716-18.712,13.9a1.508,1.508,0,0,1-1.538,1.135,1.5,1.5,0,0,1-1.4-1.3c-1.214-8.964-9.409-15.724-19.062-15.724a20.165,20.165,0,0,0-8.158,1.7,18.045,18.045,0,0,0-11.078,16.311,17.514,17.514,0,0,0,7.543,14.272,1.5,1.5,0,0,1,.343,2.091c-4.877,6.8-14.9,25.226-2.655,49.28.338.691,8.3,16.372,33.288,17.5.31.016,28.247,1.608,39.747-14.309q.472-.652.9-1.325l2.529,1.615q-.477.746-1,1.469C-1127.01,764.132-1148.327,765.5-1156.142,765.5Z"/>
    </g>
    <g id="그룹_5289" data-name="그룹 5289">
      <path id="패스_5704" data-name="패스 5704" d="M-1124.086,707.1a38.588,38.588,0,0,0-6.793-12.5.2.2,0,0,1,0-.266,18.272,18.272,0,0,0,4.219-11.619c0-10.585-9.178-19.167-20.5-19.167-9.348,0-17.216,5.857-19.681,13.855a.21.21,0,0,1-.411-.022c-1.711-8.969-10.077-15.782-20.162-15.782-11.322,0-20.5,8.581-20.5,19.167a18.7,18.7,0,0,0,7.906,15.1.2.2,0,0,1,.051.284c-5.193,7.271-14.95,25.722-2.625,49.785,0,0,8.191,16.834,34.166,18,0,0,28.569,1.834,40.565-14.666S-1124.086,707.1-1124.086,707.1Z" fill="#fbe6ba"/>
      <path id="패스_5705" data-name="패스 5705" d="M-1165.634,765.5c-1.636,0-2.672-.06-2.882-.073-26.532-1.193-35.068-18.121-35.418-18.841-12.2-23.826-3.219-42.461,2.04-50.285a20.006,20.006,0,0,1-7.524-15.538c0-11.4,9.87-20.667,22-20.667,9.307,0,17.425,5.453,20.584,13.4a22.3,22.3,0,0,1,19.67-11.446c12.131,0,22,9.27,22,20.666a19.59,19.59,0,0,1-3.9,11.72,40.553,40.553,0,0,1,6.409,12.219c.4,1.257,8.266,26.637-3.989,43.493C-1136.826,764.154-1157.906,765.5-1165.634,765.5Zm-21.784-102.4c-10.476,0-19,7.925-19,17.667a17.149,17.149,0,0,0,7.291,13.885,1.713,1.713,0,0,1,.384,2.371c-4.762,6.669-14.545,24.724-2.508,48.227.335.679,8.2,16.075,32.9,17.186.307.014,27.92,1.58,39.284-14.051,11.417-15.7,3.634-40.578,3.555-40.827l-.008-.026a37.344,37.344,0,0,0-6.488-11.946,1.7,1.7,0,0,1-.034-2.2,16.713,16.713,0,0,0,3.88-10.669c0-9.741-8.523-17.666-19-17.666-8.422,0-15.926,5.262-18.247,12.8a1.7,1.7,0,0,1-1.731,1.211,1.714,1.714,0,0,1-1.588-1.393C-1170.34,669.223-1178.2,663.1-1187.418,663.1Zm-13.764,32.176,0,.007Zm71.43-1.666.007.009Z"/>
    </g>
    <g id="그룹_5290" data-name="그룹 5290">
      <path id="패스_5706" data-name="패스 5706" d="M-1158.321,705.01a18.938,18.938,0,0,1-8.8-2.076,19.042,19.042,0,0,1-8.818,2.076c-5.145,0-9.858-1.858-12.609-4.969a1.5,1.5,0,0,1,.13-2.117,1.5,1.5,0,0,1,2.118.131c2.157,2.439,6.127,3.955,10.361,3.955a16.693,16.693,0,0,0,5.94-1.068,9.143,9.143,0,0,1-3.282-6.76c0-1.936.344-4.708,3.314-6.433l.186-.092c.328-.133,3.281-1.269,5.775.155,2.769,1.579,3.151,3.922,3.151,6.22a9.33,9.33,0,0,1-3.407,6.943,16.976,16.976,0,0,0,5.94,1.035c4.234,0,8.2-1.516,10.361-3.955a1.5,1.5,0,0,1,2.118-.131,1.5,1.5,0,0,1,.129,2.117C-1148.463,703.152-1153.176,705.01-1158.321,705.01Zm-10.237-14.608c-1.237.757-1.722,1.829-1.722,3.78a6.634,6.634,0,0,0,3.122,5.268c2.038-1.434,3.3-3.349,3.3-5.418,0-2.1-.352-2.882-1.637-3.615A4.151,4.151,0,0,0-1168.558,690.4Z"/>
    </g>
    <g id="그룹_5291" data-name="그룹 5291">
      <ellipse id="타원_307" data-name="타원 307" cx="3.25" cy="8.75" rx="3.25" ry="8.75" transform="translate(-1185.751 709.931)"/>
    </g>
    <g id="그룹_5292" data-name="그룹 5292">
      <ellipse id="타원_308" data-name="타원 308" cx="3.25" cy="8.75" rx="3.25" ry="8.75" transform="translate(-1155.334 709.931)"/>
    </g>
    <g id="그룹_5293" data-name="그룹 5293">
      <path id="패스_5707" data-name="패스 5707" d="M-1171.3,729.487a8.442,8.442,0,0,1-4.184-1.326,1,1,0,0,1-.274-1.388,1,1,0,0,1,1.385-.275c.037.023,2.092,1.365,3.854.893a3.071,3.071,0,0,0,1.933-1.767.975.975,0,0,1,.943-.55,1,1,0,0,1,.884.64,2.728,2.728,0,0,0,1.5,1.371c1.1.418,2.608.182,4.364-.675a1,1,0,0,1,1.338.46,1,1,0,0,1-.46,1.337c-2.325,1.135-4.345,1.38-6.006.728a4.719,4.719,0,0,1-1.644-1.092,4.6,4.6,0,0,1-2.349,1.484A5.029,5.029,0,0,1-1171.3,729.487Z"/>
    </g>
    <g id="그룹_5294" data-name="그룹 5294">
      <circle id="타원_309" data-name="타원 309" cx="4.456" cy="4.456" r="4.456" transform="translate(-1196.334 723.181)" fill="#b95318"/>
    </g>
    <g id="그룹_5295" data-name="그룹 5295">
      <circle id="타원_310" data-name="타원 310" cx="4.456" cy="4.456" r="4.456" transform="translate(-1147.607 723.181)" fill="#b95318"/>
    </g>
    <g id="그룹_5296" data-name="그룹 5296">
      <rect id="사각형_1062" data-name="사각형 1062" width="27.097" height="4.387" transform="matrix(0.942, -0.336, 0.336, 0.942, -1228.987, 724.671)" fill="#fff"/>
      <path id="패스_5708" data-name="패스 5708" d="M-1227.514,730.3a1.5,1.5,0,0,1-1.413-1l-1.473-4.131a1.5,1.5,0,0,1,.909-1.917l25.523-9.1a1.5,1.5,0,0,1,1.916.909l1.474,4.132a1.5,1.5,0,0,1-.057,1.147,1.5,1.5,0,0,1-.852.77l-25.523,9.1A1.5,1.5,0,0,1-1227.514,730.3Zm.444-4.722.465,1.3,22.7-8.094-.467-1.306Z"/>
    </g>
    <g id="그룹_5297" data-name="그룹 5297">
      <rect id="사각형_1063" data-name="사각형 1063" width="21.711" height="4.387" transform="matrix(0.942, -0.336, 0.336, 0.942, -1227.924, 719.635)" fill="#fff"/>
      <path id="패스_5709" data-name="패스 5709" d="M-1226.45,725.267a1.5,1.5,0,0,1-1.413-1l-1.474-4.132a1.5,1.5,0,0,1,.058-1.147,1.5,1.5,0,0,1,.851-.77l20.45-7.292a1.515,1.515,0,0,1,1.147.057,1.5,1.5,0,0,1,.77.852l1.473,4.132a1.5,1.5,0,0,1-.909,1.917l-20.449,7.292A1.509,1.509,0,0,1-1226.45,725.267Zm.443-4.723.466,1.306,17.623-6.285-.465-1.3Z"/>
    </g>
    <g id="그룹_5300" data-name="그룹 5300">
      <g id="그룹_5298" data-name="그룹 5298">
        <path id="패스_5710" data-name="패스 5710" d="M-1199.221,742.235l-16.109,5.745-9.647-20.081,20.449-7.293Z" fill="#b95318"/>
      </g>
      <g id="그룹_5299" data-name="그룹 5299">
        <path id="패스_5711" data-name="패스 5711" d="M-1215.33,749.48a1.5,1.5,0,0,1-1.352-.85l-9.647-20.082a1.5,1.5,0,0,1-.035-1.22,1.5,1.5,0,0,1,.883-.843l20.45-7.292a1.509,1.509,0,0,1,1.214.093,1.5,1.5,0,0,1,.747.963l5.306,21.629a1.5,1.5,0,0,1-.953,1.77l-16.109,5.746A1.524,1.524,0,0,1-1215.33,749.48Zm-7.573-20.729,8.341,17.363,13.561-4.837-4.588-18.7Z"/>
      </g>
    </g>
    <g id="그룹_5301" data-name="그룹 5301">
      <path id="패스_5712" data-name="패스 5712" d="M-1212.062,702.483a1.553,1.553,0,0,0-1.986-.942l-3.138,1.119-1.534.547a1.555,1.555,0,0,0-.943,1.986l.523,1.465,2.592,7.27a1.556,1.556,0,0,0,1.987.942l.07-.025a1.556,1.556,0,0,0,.942-1.987l-2.071-5.8a1.556,1.556,0,0,1,.943-1.987l1.673-.6a1.553,1.553,0,0,0,.942-1.986Z"/>
    </g>
    <g id="그룹_5302" data-name="그룹 5302">
      <ellipse id="타원_311" data-name="타원 311" cx="4.625" cy="3.844" rx="4.625" ry="3.844" transform="translate(-1208.298 727.203) rotate(-12.467)" fill="#662d11"/>
      <path id="패스_5713" data-name="패스 5713" d="M-1203.319,735.343a6.38,6.38,0,0,1-2.927-.692,5,5,0,0,1-2.687-3.372,5,5,0,0,1,1.015-4.188,6.61,6.61,0,0,1,3.812-2.351c3.3-.731,6.5,1.018,7.134,3.9h0c.636,2.877-1.529,5.811-4.826,6.541A7.117,7.117,0,0,1-1203.319,735.343Zm.714-7.767a3.926,3.926,0,0,0-.853.094,3.6,3.6,0,0,0-2.09,1.26,2.054,2.054,0,0,0-.456,1.7,2.055,2.055,0,0,0,1.132,1.352,3.591,3.591,0,0,0,2.425.262c1.654-.365,2.82-1.723,2.546-2.963h0A2.6,2.6,0,0,0-1202.6,727.576Z"/>
    </g>
    <g id="그룹_5303" data-name="그룹 5303">
      <path id="패스_5714" data-name="패스 5714" d="M-1211.476,741.3c-.117,1.743-3.486,3.429-6.9,3.2s-6.086-1.829-5.969-3.573c.089-1.328.238-1.839,2.423-2.4.7-.181,3.193.448,4.006.5.98.066,3.716-.381,4.535-.152C-1211.423,739.426-1211.392,740.058-1211.476,741.3Z" fill="#662d11"/>
      <path id="패스_5715" data-name="패스 5715" d="M-1217.772,746.021c-.236,0-.471-.007-.7-.023-4.378-.3-7.544-2.519-7.366-5.171.149-2.215.978-3.092,3.545-3.753a8.714,8.714,0,0,1,3.305.265c.456.084.973.179,1.176.192a15.436,15.436,0,0,0,1.635-.1,10.167,10.167,0,0,1,3.205,0c2.667.749,3.124,2.074,3,3.969h0C-1210.165,744.167-1214.1,746.021-1217.772,746.021Zm-3.785-6.029c-.028,0-.052,0-.074,0a3.172,3.172,0,0,0-1.169.443c-.013.06-.04.459-.049.59-.029.427,1.5,1.769,4.574,1.976,2.986.22,5.2-1.256,5.3-1.808.008-.123.027-.406.018-.561a3.508,3.508,0,0,0-.832-.315,16.747,16.747,0,0,0-2.137.1,14.972,14.972,0,0,1-2.095.1,15.305,15.305,0,0,1-1.516-.234A17.468,17.468,0,0,0-1221.557,739.992Z"/>
    </g>
    <g id="그룹_5304" data-name="그룹 5304">
      <path id="패스_5716" data-name="패스 5716" d="M-1210.493,737.445c-.135,2.01-4.019,3.954-7.956,3.689s-7.018-2.109-6.882-4.119c.1-1.531.274-2.12,2.793-2.769.812-.209,3.682.516,4.619.579,1.131.076,4.285-.44,5.23-.175C-1210.432,735.283-1210.4,736.012-1210.493,737.445Z" fill="#662d11"/>
      <path id="패스_5717" data-name="패스 5717" d="M-1217.744,742.658c-.27,0-.539-.009-.8-.026a12.889,12.889,0,0,1-5.638-1.615c-1.808-1.082-2.746-2.539-2.641-4.1.165-2.457,1.043-3.382,3.916-4.122a10.061,10.061,0,0,1,3.713.311c.532.1,1.134.208,1.382.225.351.022,1.182-.049,1.913-.111a11.719,11.719,0,0,1,3.62-.013c2.939.825,3.431,2.216,3.288,4.34h0C-1209.2,740.608-1213.623,742.658-1217.744,742.658Zm-4.375-6.952a1.043,1.043,0,0,0-.1.005c-1.309.341-1.487.573-1.494.583a2.886,2.886,0,0,0-.117.822c-.019.294.34.819,1.189,1.326a9.982,9.982,0,0,0,4.3,1.2c3.5.235,6.306-1.508,6.359-2.294h0a3.9,3.9,0,0,0,0-.816,4.975,4.975,0,0,0-1.108-.434,16.93,16.93,0,0,0-2.552.113,18.218,18.218,0,0,1-2.371.115c-.42-.029-1.024-.139-1.723-.268A20.248,20.248,0,0,0-1222.119,735.706Z"/>
    </g>
    <g id="그룹_5305" data-name="그룹 5305">
      <path id="패스_5718" data-name="패스 5718" d="M-1209.9,732.164c0,2.186-4.064,4.574-8.344,4.574s-7.751-1.772-7.751-3.958c0-1.666.143-2.316,2.822-3.2.864-.286,4.024.29,5.043.29,1.23,0,4.606-.789,5.649-.571C-1209.989,729.82-1209.9,730.606-1209.9,732.164Z" fill="#662d11"/>
      <path id="패스_5719" data-name="패스 5719" d="M-1218.241,738.238c-5.274,0-9.251-2.346-9.251-5.459,0-2.317.556-3.535,3.852-4.624a10.788,10.788,0,0,1,3.986.071c.615.07,1.251.143,1.527.143a20.158,20.158,0,0,0,2.085-.261,12.554,12.554,0,0,1,3.872-.277c3.171.663,3.773,2.034,3.773,4.333C-1208.4,735.641-1213.594,738.238-1218.241,738.238Zm-4.191-7.242a1.707,1.707,0,0,0-.314.021c-1.746.579-1.746.579-1.746,1.762,0,.979,2.493,2.459,6.251,2.459,3.954,0,6.844-2.157,6.844-3.074a3.845,3.845,0,0,0-.07-.939c0-.005-.2-.224-1.318-.458a18.552,18.552,0,0,0-2.8.306,19.379,19.379,0,0,1-2.542.3c-.448,0-1.107-.076-1.87-.164C-1220.669,731.128-1221.817,731-1222.432,731Z"/>
    </g>
    <g id="그룹_5306" data-name="그룹 5306">
      <path id="패스_5720" data-name="패스 5720" d="M-1197.4,752.567a17.022,17.022,0,0,1,4.031,1.451c6.847,3.479,10.129,10.765,7.33,16.274l-16.916-10.319Z" fill="#662d11"/>
    </g>
    <g id="그룹_5307" data-name="그룹 5307">
      <path id="패스_5721" data-name="패스 5721" d="M-1198.11,752.426a23.058,23.058,0,0,1,4.743,1.592c6.847,3.479,10.129,10.765,7.33,16.274" fill="#662d11"/>
      <path id="패스_5722" data-name="패스 5722" d="M-1186.038,771.792a1.484,1.484,0,0,1-.678-.163,1.5,1.5,0,0,1-.659-2.017,8.679,8.679,0,0,0-.077-7.6,14.185,14.185,0,0,0-6.594-6.655,21.711,21.711,0,0,0-4.387-1.463,1.5,1.5,0,0,1-1.142-1.788,1.5,1.5,0,0,1,1.787-1.142,24.269,24.269,0,0,1,5.1,1.72,17.174,17.174,0,0,1,7.97,8.1,11.619,11.619,0,0,1,.017,10.194A1.5,1.5,0,0,1-1186.038,771.792Z"/>
    </g>
    <g id="그룹_5308" data-name="그룹 5308">
      <path id="패스_5723" data-name="패스 5723" d="M-1145.327,765.1a17.039,17.039,0,0,1,3.382-2.63c6.6-3.923,14.514-2.8,17.67,2.513" fill="#662d11"/>
    </g>
    <g id="그룹_5309" data-name="그룹 5309">
      <path id="패스_5724" data-name="패스 5724" d="M-1145.327,766.6a1.494,1.494,0,0,1-1.057-.435,1.5,1.5,0,0,1-.008-2.121,18.415,18.415,0,0,1,3.682-2.863,17.2,17.2,0,0,1,11.1-2.4,11.62,11.62,0,0,1,8.622,5.439,1.5,1.5,0,0,1-.523,2.055,1.5,1.5,0,0,1-2.056-.522,8.678,8.678,0,0,0-6.464-4,14.167,14.167,0,0,0-9.15,2.011,15.464,15.464,0,0,0-3.085,2.4A1.493,1.493,0,0,1-1145.327,766.6Z"/>
    </g>
    <g id="그룹_5316" data-name="그룹 5316">
      <g id="그룹_5310" data-name="그룹 5310">
        <path id="패스_5725" data-name="패스 5725" d="M-1109.862,741.566a7.965,7.965,0,0,1-1.744,3.284" fill="#662d11"/>
      </g>
      <g id="그룹_5315" data-name="그룹 5315">
        <g id="그룹_5311" data-name="그룹 5311">
          <path id="패스_5726" data-name="패스 5726" d="M-1117.4,747.633a7.186,7.186,0,0,1-6.016-2.74,7.307,7.307,0,0,1-.6-7.839l-.086-2.353a8.051,8.051,0,0,1-3.631-3.784,7.573,7.573,0,0,1,3.335-10.167,7.307,7.307,0,0,1,7.78,1.127l4.4-6.376c3.7,3.69,8,9.349,9.3,16.592,2.417,13.494-9.3,13.379-9.3,13.379" fill="#662d11"/>
        </g>
        <g id="그룹_5312" data-name="그룹 5312">
          <path id="패스_5727" data-name="패스 5727" d="M-1112.216,745.473q-.261.24-.548.461a8.073,8.073,0,0,1-4.633,1.7" fill="#662d11"/>
        </g>
        <g id="그룹_5313" data-name="그룹 5313">
          <path id="패스_5728" data-name="패스 5728" d="M-1112.076,745.34c-.046.045-.093.089-.14.133" fill="#662d11"/>
        </g>
        <g id="그룹_5314" data-name="그룹 5314">
          <path id="패스_5729" data-name="패스 5729" d="M-1111.606,744.85c-.149.168-.305.332-.47.49" fill="#662d11"/>
        </g>
      </g>
    </g>
    <g id="그룹_5323" data-name="그룹 5323">
      <g id="그룹_5317" data-name="그룹 5317">
        <path id="패스_5730" data-name="패스 5730" d="M-1111.607,746.35a1.493,1.493,0,0,1-.99-.374,1.5,1.5,0,0,1-.135-2.118,6.5,6.5,0,0,0,1.417-2.664,1.5,1.5,0,0,1,1.826-1.081,1.5,1.5,0,0,1,1.081,1.825,9.52,9.52,0,0,1-2.072,3.9A1.5,1.5,0,0,1-1111.607,746.35Z"/>
      </g>
      <g id="그룹_5322" data-name="그룹 5322">
        <g id="그룹_5318" data-name="그룹 5318">
          <path id="패스_5731" data-name="패스 5731" d="M-1124.095,736.2a1.492,1.492,0,0,1-.679-.163,9.611,9.611,0,0,1-4.31-4.485,9.083,9.083,0,0,1,4.058-12.161,8.752,8.752,0,0,1,9.376,1.332,1.5,1.5,0,0,1,.193,2.113,1.5,1.5,0,0,1-2.112.193,5.783,5.783,0,0,0-6.184-.922,6.083,6.083,0,0,0-2.614,8.172,6.6,6.6,0,0,0,2.953,3.084,1.5,1.5,0,0,1,.657,2.018A1.5,1.5,0,0,1-1124.095,736.2Z"/>
        </g>
        <g id="그룹_5319" data-name="그룹 5319">
          <path id="패스_5732" data-name="패스 5732" d="M-1117.7,749.139a8.6,8.6,0,0,1-6.9-3.329,8.749,8.749,0,0,1-.741-9.441,1.5,1.5,0,0,1,2.019-.648,1.5,1.5,0,0,1,.649,2.019,5.779,5.779,0,0,0,.447,6.236,5.68,5.68,0,0,0,4.772,2.158,1.489,1.489,0,0,1,1.556,1.442,1.5,1.5,0,0,1-1.442,1.556C-1117.461,749.137-1117.581,749.139-1117.7,749.139Z"/>
        </g>
        <g id="그룹_5320" data-name="그룹 5320">
          <path id="패스_5733" data-name="패스 5733" d="M-1117.4,749.133a1.5,1.5,0,0,1-1.5-1.444,1.5,1.5,0,0,1,1.442-1.555,6.549,6.549,0,0,0,3.774-1.387,6.874,6.874,0,0,0,.948-.889,1.5,1.5,0,0,1,2.118-.134,1.5,1.5,0,0,1,.133,2.117,9.854,9.854,0,0,1-1.365,1.28,9.542,9.542,0,0,1-5.494,2.011Z"/>
        </g>
        <g id="그룹_5321" data-name="그룹 5321">
          <path id="패스_5734" data-name="패스 5734" d="M-1112.206,746.973h-.025a1.5,1.5,0,0,1-1.485-1.515,1.5,1.5,0,0,1,1.5-1.485h.01c.066,0,4.04-.033,6.359-2.8,1.658-1.977,2.148-4.945,1.454-8.819-1.252-6.989-5.52-12.446-8.88-15.794a1.5,1.5,0,0,1,0-2.121,1.5,1.5,0,0,1,2.121,0c3.666,3.652,8.327,9.633,9.716,17.39.861,4.809.144,8.611-2.131,11.3C-1106.746,746.886-1111.758,746.973-1112.206,746.973Z"/>
        </g>
      </g>
    </g>
    <g id="그룹_5324" data-name="그룹 5324">
      <ellipse id="타원_312" data-name="타원 312" cx="2.333" cy="4" rx="2.333" ry="4" transform="translate(-1125.31 732.032) rotate(-15.347)"/>
      <path id="패스_5735" data-name="패스 5735" d="M-1121.3,740.178c-1.618,0-3.255-1.631-3.911-4.025a6.692,6.692,0,0,1-.092-3.429,2.994,2.994,0,0,1,1.983-2.275c1.8-.494,3.8,1.237,4.537,3.941a6.705,6.705,0,0,1,.092,3.429,3,3,0,0,1-1.983,2.275A2.388,2.388,0,0,1-1121.3,740.178Zm-1.384-7.814a.37.37,0,0,0-.107.015c-.233.063-.455.392-.58.858a4.777,4.777,0,0,0,.088,2.387c.477,1.738,1.569,2.689,2.08,2.54.233-.063.455-.393.579-.858a4.765,4.765,0,0,0-.087-2.387h0C-1121.161,733.294-1122.143,732.364-1122.688,732.364Z"/>
    </g>
  </g>
</svg>
