<svg xmlns="http://www.w3.org/2000/svg" width="139.849" height="69.276" viewBox="0 0 139.849 69.276">
  <g id="그룹_1017" data-name="그룹 1017" transform="translate(832.711 -707.714)">
    <g id="그룹_763" data-name="그룹 763" transform="translate(-769.092 711.264)">
      <g id="그룹_734" data-name="그룹 734" transform="translate(0 0)">
        <g id="그룹_732" data-name="그룹 732" transform="translate(3.243 3.233)">
          <path id="패스_1477" data-name="패스 1477" d="M-679.11,730.264a.052.052,0,0,1,.013-.074,4.825,4.825,0,0,0,2.039-3.895,5.125,5.125,0,0,0-5.289-4.945,5.2,5.2,0,0,0-5.2,4.071.05.05,0,0,1-.046.04.05.05,0,0,1-.046-.04,5.2,5.2,0,0,0-5.2-4.071,5.125,5.125,0,0,0-5.289,4.945,4.825,4.825,0,0,0,2.039,3.895.052.052,0,0,1,.013.074,11.957,11.957,0,0,0-.677,12.844s2.113,4.342,8.814,4.643c0,0,.124.008.34.012h.012c.216,0,.34-.012.34-.012,6.7-.3,8.815-4.643,8.815-4.643A11.957,11.957,0,0,0-679.11,730.264Z" transform="translate(698.293 -721.351)" fill="#fff"/>
        </g>
        <g id="그룹_733" data-name="그룹 733">
          <path id="패스_1478" data-name="패스 1478" d="M-690.827,747.73h-.121c-.29-.006-.457-.016-.457-.016-6.728-.3-10.4-4.162-11.515-6.422a15.142,15.142,0,0,1-.4-13.893,7.879,7.879,0,0,1-1.314-4.369,8.365,8.365,0,0,1,8.522-8.178,8.729,8.729,0,0,1,5.247,1.734,8.736,8.736,0,0,1,5.248-1.734,8.365,8.365,0,0,1,8.522,8.178,7.878,7.878,0,0,1-1.314,4.369,15.144,15.144,0,0,1-.4,13.891c-1.117,2.259-4.785,6.118-11.552,6.425,0,0-.162.009-.42.014Zm-6.326-9.364c.112.2,1.617,2.688,6.082,2.889l.2.008.164-.005c4.35-.2,5.9-2.529,6.1-2.863l.03-.072-.014.045h0a8.735,8.735,0,0,0-.432-9.49,3.294,3.294,0,0,1,.743-4.567,1.643,1.643,0,0,0,.708-1.28,1.91,1.91,0,0,0-2.055-1.712,1.992,1.992,0,0,0-2.025,1.444,3.3,3.3,0,0,1-2.691,2.623l-.528.089-.528-.087a3.3,3.3,0,0,1-2.695-2.614,1.994,1.994,0,0,0-2.028-1.455,1.91,1.91,0,0,0-2.055,1.712,1.647,1.647,0,0,0,.713,1.284,3.3,3.3,0,0,1,.743,4.556A8.738,8.738,0,0,0-697.153,738.366Zm-4.131-8.84.016.012Zm20.834,0-.016.011Z" transform="translate(704.813 -714.851)" fill="#fbe6ba"/>
        </g>
      </g>
      <g id="그룹_737" data-name="그룹 737" transform="translate(4.099 6.178)">
        <g id="그룹_735" data-name="그룹 735" transform="translate(3.233 3.234)">
          <path id="패스_1479" data-name="패스 1479" d="M-690.073,735.991a2.39,2.39,0,0,1,.316-1.131,2.155,2.155,0,0,1,.8-.8,2.152,2.152,0,0,1,1.093-.29h8.755a2.091,2.091,0,0,1,1.125.311,2.278,2.278,0,0,1,.8.841,2.336,2.336,0,0,1,.295,1.154,2.24,2.24,0,0,1-.688,1.574,2.115,2.115,0,0,1-1.53.645h-1.88v9.378a2.447,2.447,0,0,1-.344,1.284,2.635,2.635,0,0,1-.918.918,2.444,2.444,0,0,1-1.284.344,2.526,2.526,0,0,1-1.306-.344,2.543,2.543,0,0,1-.929-.945,2.571,2.571,0,0,1-.344-1.3v-9.378h-1.771a2.063,2.063,0,0,1-1.546-.667A2.225,2.225,0,0,1-690.073,735.991Z" transform="translate(690.073 -733.773)" fill="#fff"/>
        </g>
        <g id="그룹_736" data-name="그룹 736">
          <path id="패스_1480" data-name="패스 1480" d="M-686.8,750.188a5.722,5.722,0,0,1-2.947-.792,5.745,5.745,0,0,1-2.095-2.125,5.772,5.772,0,0,1-.771-2.906v-6.34a5.294,5.294,0,0,1-2.417-1.466,5.439,5.439,0,0,1-1.539-3.834l0-.113a5.6,5.6,0,0,1,.75-2.638,5.362,5.362,0,0,1,1.984-1.98,5.347,5.347,0,0,1,2.705-.721h8.755a5.36,5.36,0,0,1,2.83.8,5.479,5.479,0,0,1,1.917,2.013,5.549,5.549,0,0,1,.705,2.729l0,.114a5.459,5.459,0,0,1-1.652,3.765,5.388,5.388,0,0,1-2.444,1.4v6.314a5.645,5.645,0,0,1-.805,2.947,5.845,5.845,0,0,1-2.027,2.028A5.648,5.648,0,0,1-686.8,750.188Z" transform="translate(696.573 -727.272)" fill="#fbe6ba"/>
        </g>
      </g>
      <g id="그룹_740" data-name="그룹 740" transform="translate(26.459 5.982)">
        <g id="그룹_738" data-name="그룹 738" transform="translate(3.233 3.233)">
          <path id="패스_1481" data-name="패스 1481" d="M-644.334,749.225a3.147,3.147,0,0,1-.787-2.066V736.033a2.644,2.644,0,0,1,.443-1.5,2.5,2.5,0,0,1,1.175-.962,2.412,2.412,0,0,1,.94-.2,2.958,2.958,0,0,1,2.219,1.224l5.684,6.743v-5.312a2.533,2.533,0,0,1,.776-1.858,2.494,2.494,0,0,1,1.814-.754,2.657,2.657,0,0,1,1,.191,2.2,2.2,0,0,1,.815.563,2.492,2.492,0,0,1,.557.836,2.632,2.632,0,0,1,.207,1.022v11.4a4.575,4.575,0,0,1-.044.514,2.4,2.4,0,0,1-.487,1.076,2.63,2.63,0,0,1-.913.738,2.594,2.594,0,0,1-1.158.262,2.505,2.505,0,0,1-1.344-.372,2.719,2.719,0,0,1-.645-.568l-5.869-7.2v5.53a2.552,2.552,0,0,1-.754,1.88,2.414,2.414,0,0,1-1.771.732A2.41,2.41,0,0,1-644.334,749.225Z" transform="translate(645.121 -733.377)" fill="#fff"/>
        </g>
        <g id="그룹_739" data-name="그룹 739">
          <path id="패스_1482" data-name="패스 1482" d="M-635.36,749.99a5.7,5.7,0,0,1-3.045-.854l-.109-.071a5.885,5.885,0,0,1-1.367-1.236l-.761-.934a5.825,5.825,0,0,1-1.044,1.414,5.626,5.626,0,0,1-4.058,1.681,5.607,5.607,0,0,1-4.241-1.846l-.1-.11a6.4,6.4,0,0,1-1.541-4.141V732.766a5.918,5.918,0,0,1,.983-3.287,5.767,5.767,0,0,1,2.661-2.171,5.57,5.57,0,0,1,2.147-.431,6.061,6.061,0,0,1,4.674,2.353l.67.8a5.964,5.964,0,0,1,1.05-1.4,5.722,5.722,0,0,1,4.1-1.7,5.894,5.894,0,0,1,2.206.424,5.43,5.43,0,0,1,1.93,1.312,5.7,5.7,0,0,1,1.219,1.841,5.855,5.855,0,0,1,.458,2.269v11.4a7.4,7.4,0,0,1-.069.915l-.027.177a5.6,5.6,0,0,1-1.136,2.509,5.831,5.831,0,0,1-2.022,1.63A5.811,5.811,0,0,1-635.36,749.99Z" transform="translate(651.621 -726.877)" fill="#fbe6ba"/>
        </g>
      </g>
      <g id="그룹_743" data-name="그룹 743" transform="translate(44.3 6.004)">
        <g id="그룹_741" data-name="그룹 741" transform="translate(3.233 3.233)">
          <path id="패스_1483" data-name="패스 1483" d="M-599.232,745.411a2.487,2.487,0,0,0,1.639-.885h-1.345a2.179,2.179,0,0,1-1.623-.677,2.249,2.249,0,0,1-.662-1.628,2.413,2.413,0,0,1,.317-1.142,2.24,2.24,0,0,1,.815-.814,2.186,2.186,0,0,1,1.131-.306h4.339q2.394,0,2.394,2.634a8.464,8.464,0,0,1-.153,1.574,6.255,6.255,0,0,1-.754,2.1,7.214,7.214,0,0,1-1.7,2.049,7.289,7.289,0,0,1-2.371,1.306,9.231,9.231,0,0,1-2.946.448,13.236,13.236,0,0,1-2.033-.174,9.318,9.318,0,0,1-2.771-.913,7.744,7.744,0,0,1-2.17-1.678,8.3,8.3,0,0,1-1.486-2.339,8.141,8.141,0,0,1-.645-3.148,7.916,7.916,0,0,1,1.066-3.973,8.74,8.74,0,0,1,3.011-3.1,8.936,8.936,0,0,1,4.831-1.323q.35,0,1.006.044a10.571,10.571,0,0,1,2.284.448,9.683,9.683,0,0,1,2.011.918q1.912,1.257,1.913,2.689a2.021,2.021,0,0,1-.787,1.541,1.962,1.962,0,0,1-1.345.492,3.211,3.211,0,0,1-1.235-.274h-.022l-.94-.491a4.107,4.107,0,0,0-.47-.241,6.089,6.089,0,0,0-2.546-.634,3.762,3.762,0,0,0-1.705.377,3.3,3.3,0,0,0-1.257,1.109,4.189,4.189,0,0,0-.667,1.694,2.855,2.855,0,0,0-.066.6,4.134,4.134,0,0,0,.066.743,4.223,4.223,0,0,0,.7,1.667,3.383,3.383,0,0,0,1.273,1.071,3.913,3.913,0,0,0,1.743.378A4.769,4.769,0,0,0-599.232,745.411Z" transform="translate(609.254 -733.421)" fill="#fff"/>
        </g>
        <g id="그룹_742" data-name="그룹 742">
          <path id="패스_1484" data-name="패스 1484" d="M-603.416,750.034a16.516,16.516,0,0,1-2.534-.214,12.657,12.657,0,0,1-3.771-1.244,11.013,11.013,0,0,1-3.066-2.373,11.556,11.556,0,0,1-2.064-3.243,11.423,11.423,0,0,1-.9-4.412,11.141,11.141,0,0,1,1.488-5.57,11.981,11.981,0,0,1,4.1-4.238,12.168,12.168,0,0,1,6.552-1.819c.308,0,.707.016,1.221.051l.056,0a13.906,13.906,0,0,1,2.98.586,13.076,13.076,0,0,1,2.716,1.236l.1.065c2.786,1.831,3.37,3.942,3.37,5.391a4.941,4.941,0,0,1-.192,1.364,6.254,6.254,0,0,1,1.1,3.707,11.709,11.709,0,0,1-.2,2.119,9.528,9.528,0,0,1-1.115,3.124,10.5,10.5,0,0,1-2.46,2.966,10.548,10.548,0,0,1-3.413,1.885A12.488,12.488,0,0,1-603.416,750.034Z" transform="translate(615.754 -726.921)" fill="#fbe6ba"/>
        </g>
      </g>
      <g id="그룹_746" data-name="그룹 746" transform="translate(18.96 6.026)">
        <g id="그룹_744" data-name="그룹 744" transform="translate(3.233 3.233)">
          <rect id="사각형_199" data-name="사각형 199" width="5.079" height="26.046" rx="2.539" fill="#fff"/>
        </g>
        <g id="그룹_745" data-name="그룹 745">
          <path id="패스_1485" data-name="패스 1485" d="M-660.924,759.478a5.779,5.779,0,0,1-5.773-5.773V732.738a5.779,5.779,0,0,1,5.773-5.773,5.779,5.779,0,0,1,5.773,5.773v20.968A5.779,5.779,0,0,1-660.924,759.478Z" transform="translate(666.697 -726.965)" fill="#fbe6ba"/>
        </g>
      </g>
      <g id="그룹_749" data-name="그룹 749" transform="translate(8.296 28.325)">
        <g id="그룹_747" data-name="그룹 747" transform="translate(3.233 3.233)">
          <path id="패스_1486" data-name="패스 1486" d="M-660.332,782.057l-2.765.022-.019-3.784-15.307.119-.079,3.783-3.1.025-.033,3.784,2.192-.017,1.779,16.976,13.415.012,1.767-17.12,2.118-.017Z" transform="translate(681.635 -778.295)" fill="#fff"/>
        </g>
        <g id="그룹_748" data-name="그룹 748">
          <path id="패스_1487" data-name="패스 1487" d="M-667.517,802.943h0l-13.414-.011a3.234,3.234,0,0,1-3.213-2.9l-1.482-14.146a3.233,3.233,0,0,1-1.56-.865,3.236,3.236,0,0,1-.946-2.314l.033-3.783a3.234,3.234,0,0,1,3.167-3.2l.014-.643a3.234,3.234,0,0,1,3.207-3.166l15.307-.119h.025a3.235,3.235,0,0,1,2.272.932,3.234,3.234,0,0,1,.961,2.285l0,.576a3.232,3.232,0,0,1,1.834.916,3.234,3.234,0,0,1,.946,2.314l-.033,3.784a3.235,3.235,0,0,1-2.422,3.1l-1.48,14.337A3.234,3.234,0,0,1-667.517,802.943Zm-10.5-6.475,7.586.006,1.467-14.216a3.229,3.229,0,0,1,.337-1.14l-.006-.005a3.234,3.234,0,0,1-.961-2.285l0-.541-8.923.069-.013.642a3.226,3.226,0,0,1-1.2,2.449,3.212,3.212,0,0,1,.243.938Z" transform="translate(688.135 -771.795)" fill="#fbe6ba"/>
        </g>
      </g>
      <g id="그룹_762" data-name="그룹 762" transform="translate(12.535 33.325)">
        <g id="그룹_752" data-name="그룹 752" transform="translate(0 0.196)">
          <g id="그룹_750" data-name="그룹 750" transform="translate(3.233 3.233)">
            <path id="패스_1488" data-name="패스 1488" d="M-673.114,790.96a2.389,2.389,0,0,1,.316-1.131,2.155,2.155,0,0,1,.8-.8,2.152,2.152,0,0,1,1.093-.29h8.755a2.09,2.09,0,0,1,1.125.311,2.277,2.277,0,0,1,.8.842,2.34,2.34,0,0,1,.3,1.153,2.24,2.24,0,0,1-.689,1.574,2.115,2.115,0,0,1-1.53.645h-1.88v9.378a2.449,2.449,0,0,1-.344,1.284,2.637,2.637,0,0,1-.918.918,2.444,2.444,0,0,1-1.284.345,2.526,2.526,0,0,1-1.306-.345,2.54,2.54,0,0,1-.929-.945,2.57,2.57,0,0,1-.344-1.3v-9.378h-1.771a2.063,2.063,0,0,1-1.546-.667A2.224,2.224,0,0,1-673.114,790.96Z" transform="translate(673.114 -788.742)" fill="#fff"/>
          </g>
          <g id="그룹_751" data-name="그룹 751">
            <path id="패스_1489" data-name="패스 1489" d="M-669.845,805.158a5.727,5.727,0,0,1-2.947-.792,5.742,5.742,0,0,1-2.095-2.126,5.77,5.77,0,0,1-.771-2.905v-6.341a5.3,5.3,0,0,1-2.417-1.466,5.439,5.439,0,0,1-1.539-3.834l0-.113a5.6,5.6,0,0,1,.75-2.638,5.367,5.367,0,0,1,1.981-1.979,5.362,5.362,0,0,1,2.708-.722h8.755a5.285,5.285,0,0,1,2.83.8,5.479,5.479,0,0,1,1.917,2.013,5.55,5.55,0,0,1,.705,2.729l0,.114a5.46,5.46,0,0,1-1.652,3.765,5.392,5.392,0,0,1-2.444,1.4v6.314a5.646,5.646,0,0,1-.805,2.947,5.841,5.841,0,0,1-2.027,2.028A5.645,5.645,0,0,1-669.845,805.158Z" transform="translate(679.614 -782.242)" fill="#fbe6ba"/>
          </g>
        </g>
        <g id="그룹_755" data-name="그룹 755" transform="translate(14.77 0.044)">
          <g id="그룹_753" data-name="그룹 753" transform="translate(3.233 3.233)">
            <path id="패스_1490" data-name="패스 1490" d="M-642.656,804.3a2.553,2.553,0,0,1-.765-1.879v-11.4a2.485,2.485,0,0,1,.759-1.841,2.527,2.527,0,0,1,1.842-.749,2.524,2.524,0,0,1,1.284.344,2.517,2.517,0,0,1,.94.946,2.612,2.612,0,0,1,.345,1.323v11.422a2.7,2.7,0,0,1-.192,1,2.491,2.491,0,0,1-.562.859,2.537,2.537,0,0,1-1.815.732A2.429,2.429,0,0,1-642.656,804.3Z" transform="translate(643.42 -788.434)" fill="#fff"/>
          </g>
          <g id="그룹_754" data-name="그룹 754">
            <path id="패스_1491" data-name="패스 1491" d="M-644.086,805.025a5.634,5.634,0,0,1-4.148-1.727,5.766,5.766,0,0,1-1.686-4.14v-11.4a5.7,5.7,0,0,1,1.722-4.143,5.744,5.744,0,0,1,4.112-1.68,5.73,5.73,0,0,1,2.9.777,5.72,5.72,0,0,1,2.129,2.14,5.811,5.811,0,0,1,.771,2.928V799.2a5.936,5.936,0,0,1-.417,2.186,5.717,5.717,0,0,1-1.282,1.956l-.054.053A5.757,5.757,0,0,1-644.086,805.025Z" transform="translate(649.92 -781.935)" fill="#fbe6ba"/>
          </g>
        </g>
        <g id="그룹_758" data-name="그룹 758" transform="translate(22.36)">
          <g id="그룹_756" data-name="그룹 756" transform="translate(3.233 3.233)">
            <path id="패스_1492" data-name="패스 1492" d="M-627.375,804.194a3.146,3.146,0,0,1-.787-2.066V791a2.645,2.645,0,0,1,.443-1.5,2.5,2.5,0,0,1,1.175-.961,2.411,2.411,0,0,1,.939-.2,2.96,2.96,0,0,1,2.219,1.224l5.684,6.744V791a2.533,2.533,0,0,1,.776-1.858,2.5,2.5,0,0,1,1.814-.754,2.669,2.669,0,0,1,1,.191,2.2,2.2,0,0,1,.815.563,2.494,2.494,0,0,1,.557.836,2.633,2.633,0,0,1,.207,1.022v11.4a4.7,4.7,0,0,1-.044.513,2.4,2.4,0,0,1-.486,1.076,2.618,2.618,0,0,1-.913.738,2.593,2.593,0,0,1-1.158.263,2.5,2.5,0,0,1-1.345-.372,2.73,2.73,0,0,1-.645-.569l-5.869-7.2v5.531a2.551,2.551,0,0,1-.754,1.879,2.414,2.414,0,0,1-1.771.733A2.41,2.41,0,0,1-627.375,804.194Z" transform="translate(628.162 -788.346)" fill="#fff"/>
          </g>
          <g id="그룹_757" data-name="그룹 757">
            <path id="패스_1493" data-name="패스 1493" d="M-618.4,804.959a5.707,5.707,0,0,1-3.045-.855l-.109-.071a5.878,5.878,0,0,1-1.367-1.236l-.761-.934a5.818,5.818,0,0,1-1.045,1.416,5.626,5.626,0,0,1-4.057,1.679,5.609,5.609,0,0,1-4.24-1.846l-.1-.109a6.4,6.4,0,0,1-1.541-4.141V787.736a5.834,5.834,0,0,1,.983-3.287,5.763,5.763,0,0,1,2.661-2.171,5.561,5.561,0,0,1,2.147-.431A6.062,6.062,0,0,1-624.2,784.2l.67.8a5.955,5.955,0,0,1,1.049-1.4,5.721,5.721,0,0,1,4.1-1.7,5.9,5.9,0,0,1,2.206.424,5.422,5.422,0,0,1,1.93,1.312,5.705,5.705,0,0,1,1.219,1.841,5.857,5.857,0,0,1,.458,2.269v11.4a7.374,7.374,0,0,1-.069.914l-.027.178a5.6,5.6,0,0,1-1.136,2.509,5.836,5.836,0,0,1-2.022,1.63A5.812,5.812,0,0,1-618.4,804.959Z" transform="translate(634.662 -781.847)" fill="#fbe6ba"/>
          </g>
        </g>
        <g id="그룹_761" data-name="그룹 761" transform="translate(40.201 0.022)">
          <g id="그룹_759" data-name="그룹 759" transform="translate(3.233 3.233)">
            <path id="패스_1494" data-name="패스 1494" d="M-582.273,800.38a2.489,2.489,0,0,0,1.64-.885h-1.345a2.179,2.179,0,0,1-1.622-.677,2.251,2.251,0,0,1-.662-1.629,2.416,2.416,0,0,1,.317-1.142,2.244,2.244,0,0,1,.815-.814,2.186,2.186,0,0,1,1.131-.306h4.339q2.394,0,2.394,2.634a8.454,8.454,0,0,1-.153,1.574,6.25,6.25,0,0,1-.754,2.1,7.209,7.209,0,0,1-1.7,2.049,7.27,7.27,0,0,1-2.371,1.306,9.23,9.23,0,0,1-2.946.449,13.243,13.243,0,0,1-2.033-.175,9.32,9.32,0,0,1-2.771-.913,7.745,7.745,0,0,1-2.17-1.677,8.3,8.3,0,0,1-1.486-2.339,8.142,8.142,0,0,1-.645-3.148,7.92,7.92,0,0,1,1.066-3.973,8.744,8.744,0,0,1,3.011-3.1,8.937,8.937,0,0,1,4.831-1.323q.35,0,1.006.044a10.574,10.574,0,0,1,2.284.448,9.687,9.687,0,0,1,2.011.918q1.912,1.256,1.913,2.689a2.02,2.02,0,0,1-.787,1.541,1.962,1.962,0,0,1-1.344.492,3.219,3.219,0,0,1-1.235-.273h-.022l-.94-.492a4.105,4.105,0,0,0-.47-.241,6.09,6.09,0,0,0-2.546-.634,3.762,3.762,0,0,0-1.705.377,3.3,3.3,0,0,0-1.257,1.109,4.192,4.192,0,0,0-.667,1.695,2.861,2.861,0,0,0-.066.6,4.154,4.154,0,0,0,.066.743,4.222,4.222,0,0,0,.7,1.666,3.386,3.386,0,0,0,1.273,1.071,3.921,3.921,0,0,0,1.743.377A4.741,4.741,0,0,0-582.273,800.38Z" transform="translate(592.295 -788.39)" fill="#fff"/>
          </g>
          <g id="그룹_760" data-name="그룹 760">
            <path id="패스_1495" data-name="패스 1495" d="M-586.457,805a16.511,16.511,0,0,1-2.534-.213,12.683,12.683,0,0,1-3.771-1.244,11.012,11.012,0,0,1-3.066-2.373,11.546,11.546,0,0,1-2.064-3.243,11.424,11.424,0,0,1-.9-4.412,11.152,11.152,0,0,1,1.488-5.571,11.989,11.989,0,0,1,4.1-4.238,12.169,12.169,0,0,1,6.552-1.819c.308,0,.707.016,1.221.051l.056,0a13.871,13.871,0,0,1,2.981.585,13.035,13.035,0,0,1,2.716,1.236l.1.065c2.786,1.831,3.371,3.942,3.371,5.391a4.954,4.954,0,0,1-.192,1.365,6.253,6.253,0,0,1,1.1,3.706,11.713,11.713,0,0,1-.2,2.118,9.52,9.52,0,0,1-1.115,3.124,10.493,10.493,0,0,1-2.461,2.968,10.547,10.547,0,0,1-3.412,1.884A12.5,12.5,0,0,1-586.457,805Zm4.985-16.973h0Z" transform="translate(598.795 -781.891)" fill="#fbe6ba"/>
          </g>
        </g>
      </g>
    </g>
    <g id="그룹_886" data-name="그룹 886" transform="translate(-832.711 707.714)">
      <g id="그룹_770" data-name="그룹 770" transform="translate(8.533 45.962)">
        <g id="그룹_766" data-name="그룹 766" transform="translate(1.214 0.191)">
          <g id="그룹_764" data-name="그룹 764" transform="translate(3.731 3.732)">
            <path id="패스_1496" data-name="패스 1496" d="M-805.616,816.168a17.25,17.25,0,0,0,6.681,4.843,13.587,13.587,0,0,0,7.741.591c4.01-.995,4.539-10.073,4.539-10.073l-13-3.528" transform="translate(805.616 -808.001)" fill="#fff"/>
          </g>
          <g id="그룹_765" data-name="그룹 765">
            <path id="패스_1497" data-name="패스 1497" d="M-797.751,821.891a17.635,17.635,0,0,1-6.347-1.19,20.688,20.688,0,0,1-8.264-6.054,3.73,3.73,0,0,1,.725-5.225,3.729,3.729,0,0,1,5.226.725,13.343,13.343,0,0,0,5.044,3.611l.121.049h0a9.989,9.989,0,0,0,5.244.436,9,9,0,0,0,1.435-3.744l-9.831-2.669a3.731,3.731,0,0,1-2.623-4.578,3.731,3.731,0,0,1,4.578-2.623l13,3.527a3.731,3.731,0,0,1,2.747,3.817c-.161,2.774-1.169,11.94-7.365,13.477A15.3,15.3,0,0,1-797.751,821.891Z" transform="translate(813.117 -800.499)" fill="#fbe6ba"/>
          </g>
        </g>
        <g id="그룹_769" data-name="그룹 769">
          <g id="그룹_767" data-name="그룹 767" transform="translate(3.731 3.736)">
            <path id="패스_1498" data-name="패스 1498" d="M-805.8,817.149c-2.065-1.9-2.857-4.62-1.755-6.787,1.124-2.211,3.873-3.171,6.683-2.55" transform="translate(808.056 -807.626)" fill="#fff"/>
          </g>
          <g id="그룹_768" data-name="그룹 768">
            <path id="패스_1499" data-name="패스 1499" d="M-809.575,817.105a3.716,3.716,0,0,1-2.524-.985c-3.367-3.1-4.394-7.607-2.556-11.223,1.883-3.706,6.228-5.516,10.813-4.5A3.73,3.73,0,0,1-801,804.842a3.733,3.733,0,0,1-4.448,2.838c-1.265-.28-2.291.085-2.551.6-.291.573.119,1.584.955,2.352a3.731,3.731,0,0,1,.22,5.272A3.722,3.722,0,0,1-809.575,817.105Z" transform="translate(815.557 -800.116)" fill="#fbe6ba"/>
          </g>
        </g>
      </g>
      <g id="그룹_777" data-name="그룹 777" transform="translate(39.538 43.297)">
        <g id="그룹_773" data-name="그룹 773" transform="translate(2.077)">
          <g id="그룹_771" data-name="그룹 771" transform="translate(3.731 3.731)">
            <path id="패스_1500" data-name="패스 1500" d="M-737.842,820.76a17.255,17.255,0,0,0,7.666-3.055,13.586,13.586,0,0,0,4.64-6.224c1.305-3.921-6.082-9.223-6.082-9.223l-9.932,9.093" transform="translate(741.55 -802.258)" fill="#fff"/>
          </g>
          <g id="그룹_772" data-name="그룹 772">
            <path id="패스_1501" data-name="패스 1501" d="M-741.615,820.721a3.731,3.731,0,0,1-3.714-3.421,3.73,3.73,0,0,1,3.408-4.028,13.408,13.408,0,0,0,5.761-2.339l.095-.067a9.981,9.981,0,0,0,3.174-4.2,8.881,8.881,0,0,0-2.4-3.215l-7.515,6.879a3.731,3.731,0,0,1-5.271-.232,3.731,3.731,0,0,1,.232-5.271l9.933-9.093a3.731,3.731,0,0,1,4.695-.279c2.256,1.62,9.462,7.375,7.446,13.432a17.2,17.2,0,0,1-6,8.075,20.687,20.687,0,0,1-9.536,3.744C-741.407,820.717-741.511,820.721-741.615,820.721Z" transform="translate(749.05 -794.758)" fill="#fbe6ba"/>
          </g>
        </g>
        <g id="그룹_776" data-name="그룹 776" transform="translate(0 9.092)">
          <g id="그룹_774" data-name="그룹 774" transform="translate(3.74 3.731)">
            <path id="패스_1502" data-name="패스 1502" d="M-738.388,829.694c-2.709.729-5.431-.058-6.673-2.148-1.267-2.132-.607-4.969,1.421-7.01" transform="translate(745.707 -820.536)" fill="#fff"/>
          </g>
          <g id="그룹_775" data-name="그룹 775">
            <path id="패스_1503" data-name="패스 1503" d="M-744.139,829.923a9,9,0,0,1-7.907-4.24c-2.124-3.574-1.328-8.213,1.98-11.545a3.73,3.73,0,0,1,5.276-.018,3.731,3.731,0,0,1,.018,5.276c-.913.92-1.154,1.981-.861,2.475.328.552,1.4.747,2.5.452a3.73,3.73,0,0,1,4.571,2.633,3.73,3.73,0,0,1-2.634,4.571A11.3,11.3,0,0,1-744.139,829.923Z" transform="translate(753.226 -813.036)" fill="#fbe6ba"/>
          </g>
        </g>
      </g>
      <g id="그룹_780" data-name="그룹 780" transform="translate(14.63)">
        <g id="그룹_778" data-name="그룹 778" transform="translate(3.74 3.731)">
          <path id="패스_1504" data-name="패스 1504" d="M-752.229,743.227a32.969,32.969,0,0,0-1.053-4.979,19.5,19.5,0,0,0-3.475-6.394,9.3,9.3,0,0,0,2.179-5.95c0-5.359-4.617-9.7-10.314-9.7a10.2,10.2,0,0,0-10.032,7.481,10.113,10.113,0,0,0-10.221-8.468,10.819,10.819,0,0,0-4.358.906,9.687,9.687,0,0,0-5.957,8.8,9.495,9.495,0,0,0,4.062,7.7c-2.6,3.622-7.627,13.011-1.379,25.285,0,0,4.121,8.522,17.189,9.113,0,0,14.374.928,20.41-7.425q.247-.342.472-.695" transform="translate(795.781 -715.214)" fill="#fff"/>
        </g>
        <g id="그룹_779" data-name="그룹 779">
          <path id="패스_1505" data-name="패스 1505" d="M-778.077,767.012c-.79,0-1.315-.027-1.489-.037-14.621-.674-19.815-10.161-20.315-11.146h0c-5.926-11.643-2.936-21.115-.073-26.364a12.936,12.936,0,0,1-3.016-8.318,13.453,13.453,0,0,1,8.187-12.213,14.482,14.482,0,0,1,5.858-1.221,14.316,14.316,0,0,1,10.605,4.645,14.348,14.348,0,0,1,9.648-3.659c7.744,0,14.045,6.026,14.045,13.434a12.813,12.813,0,0,1-1.383,5.815,24.119,24.119,0,0,1,2.516,5.436,37.261,37.261,0,0,1,1.181,5.561,3.73,3.73,0,0,1-3.184,4.207,3.728,3.728,0,0,1-4.207-3.183,30,30,0,0,0-.915-4.366l-.017-.057a15.8,15.8,0,0,0-2.7-5,3.729,3.729,0,0,1-.072-4.841,5.588,5.588,0,0,0,1.322-3.572c0-3.293-2.953-5.973-6.583-5.973a6.52,6.52,0,0,0-6.412,4.653,3.732,3.732,0,0,1-3.825,2.822,3.731,3.731,0,0,1-3.492-3.224,6.4,6.4,0,0,0-6.524-5.238,7.073,7.073,0,0,0-2.859.591,6,6,0,0,0-3.725,5.382,5.762,5.762,0,0,0,2.51,4.676,3.731,3.731,0,0,1,.854,5.2c-2.618,3.653-6.242,11.292-1.087,21.419a.61.61,0,0,1,.034.068c.117.225,3.5,6.536,14,7.01l.072,0c3.429.206,13.213-.446,17.145-5.887.123-.171.241-.344.354-.52a3.73,3.73,0,0,1,5.153-1.132,3.73,3.73,0,0,1,1.132,5.153q-.281.44-.591.868C-761.881,766.241-773.819,767.012-778.077,767.012Z" transform="translate(803.3 -707.714)" fill="#fbe6ba"/>
        </g>
      </g>
      <g id="그룹_783" data-name="그룹 783" transform="translate(10.157 0.903)">
        <g id="그룹_781" data-name="그룹 781" transform="translate(3.737 3.731)">
          <path id="패스_1506" data-name="패스 1506" d="M-762.763,739.663a19.2,19.2,0,0,0-3.379-6.217.1.1,0,0,1,0-.132,9.092,9.092,0,0,0,2.1-5.78c0-5.265-4.565-9.533-10.2-9.533a10.117,10.117,0,0,0-9.79,6.892.105.105,0,0,1-.205-.011,10.026,10.026,0,0,0-10.028-7.85c-5.632,0-10.2,4.269-10.2,9.534a9.3,9.3,0,0,0,3.933,7.51.1.1,0,0,1,.025.141c-2.583,3.616-7.436,12.794-1.306,24.764,0,0,4.074,8.373,16.995,8.953,0,0,14.211.912,20.178-7.3S-762.763,739.663-762.763,739.663Z" transform="translate(804.78 -717.03)" fill="#fff"/>
        </g>
        <g id="그룹_782" data-name="그룹 782">
          <path id="패스_1507" data-name="패스 1507" d="M-787.317,767.925c-.779,0-1.3-.026-1.471-.036-14.467-.662-19.618-10-20.118-10.979h0c-5.865-11.45-2.908-20.782-.1-25.935a12.748,12.748,0,0,1-2.967-8.181c0-7.314,6.248-13.265,13.928-13.265a14.207,14.207,0,0,1,10.516,4.568,14.329,14.329,0,0,1,9.507-3.6c7.68,0,13.928,5.951,13.928,13.265a12.606,12.606,0,0,1-1.355,5.709,23.717,23.717,0,0,1,2.471,5.316c.3.967,4.477,14.785-2.421,24.273C-771.288,767.166-783.105,767.925-787.317,767.925Zm-14.923-14.367c.272.5,3.686,6.424,13.816,6.878l.072,0c3.386.2,13.046-.435,16.921-5.766,4.722-6.5,1.375-17.533,1.339-17.642l-.017-.054a15.466,15.466,0,0,0-2.622-4.851,3.82,3.82,0,0,1-.067-4.957,5.377,5.377,0,0,0,1.246-3.406c0-3.2-2.9-5.8-6.466-5.8a6.412,6.412,0,0,0-6.224,4.26,3.834,3.834,0,0,1-3.874,2.7,3.833,3.833,0,0,1-3.56-3.109,6.285,6.285,0,0,0-6.365-4.824c-3.566,0-6.466,2.6-6.466,5.8a5.58,5.58,0,0,0,2.4,4.5,3.838,3.838,0,0,1,.862,5.321c-2.551,3.571-6.074,11.032-1.022,20.9C-802.242,753.553-802.251,753.533-802.24,753.558Zm-4.29-20.259.04.029ZM-767,731.872l-.027.034Zm-24.367-11.853,0,.008Z" transform="translate(812.292 -709.53)" fill="#fbe6ba"/>
        </g>
      </g>
      <g id="그룹_786" data-name="그룹 786" transform="translate(20.675 14.34)">
        <g id="그룹_784" data-name="그룹 784" transform="translate(3.731 3.728)">
          <path id="패스_1508" data-name="패스 1508" d="M-763.458,749.232a7.678,7.678,0,0,1-5.713,2.219c-3.7,0-6.695-2.077-6.695-4.639a2.632,2.632,0,0,1,1.277-2.555,2.874,2.874,0,0,1,2.22.034,2.386,2.386,0,0,1,1.191,2.446c0,2.563-3.06,4.715-6.757,4.715a7.676,7.676,0,0,1-5.713-2.219" transform="translate(783.647 -744.038)" fill="#fff"/>
        </g>
        <g id="그룹_785" data-name="그룹 785">
          <path id="패스_1509" data-name="패스 1509" d="M-772.941,751.416a12.84,12.84,0,0,1-4.416-.76,12.583,12.583,0,0,1-4.348.76,11.4,11.4,0,0,1-8.507-3.479,3.731,3.731,0,0,1,.324-5.266,3.73,3.73,0,0,1,5.266.324,2.915,2.915,0,0,0,1.288.723q-.031-.333-.032-.673a6.264,6.264,0,0,1,3.135-5.781,3.707,3.707,0,0,1,.463-.227,6.556,6.556,0,0,1,5.477.246,6.093,6.093,0,0,1,3.075,5.689,6.822,6.822,0,0,1-.039.73,2.866,2.866,0,0,0,1.232-.706,3.732,3.732,0,0,1,5.266-.324,3.731,3.731,0,0,1,.324,5.266A11.4,11.4,0,0,1-772.941,751.416Zm-2.957-8.53Z" transform="translate(791.147 -736.544)" fill="#fbe6ba"/>
        </g>
      </g>
      <g id="그룹_789" data-name="그룹 789" transform="translate(21.506 24.945)">
        <g id="그룹_787" data-name="그룹 787" transform="translate(3.731 3.731)">
          <ellipse id="타원_102" data-name="타원 102" cx="1.617" cy="4.352" rx="1.617" ry="4.352" fill="#fff"/>
        </g>
        <g id="그룹_788" data-name="그룹 788">
          <ellipse id="타원_103" data-name="타원 103" cx="5.347" cy="8.083" rx="5.347" ry="8.083" fill="#fbe6ba"/>
        </g>
      </g>
      <g id="그룹_792" data-name="그룹 792" transform="translate(36.636 24.945)">
        <g id="그룹_790" data-name="그룹 790" transform="translate(3.731 3.731)">
          <ellipse id="타원_104" data-name="타원 104" cx="1.617" cy="4.352" rx="1.617" ry="4.352" fill="#fff"/>
        </g>
        <g id="그룹_791" data-name="그룹 791">
          <ellipse id="타원_105" data-name="타원 105" cx="5.347" cy="8.083" rx="5.347" ry="8.083" fill="#fbe6ba"/>
        </g>
      </g>
      <g id="그룹_795" data-name="그룹 795" transform="translate(28.543 32.976)">
        <g id="그룹_793" data-name="그룹 793" transform="translate(2.076 3.73)">
          <path id="패스_1510" data-name="패스 1510" d="M-771.155,782.131s2.458,1.646,3.6-.625c0,0,.768,2,3.6.614" transform="translate(771.155 -781.506)" fill="#fff"/>
        </g>
        <g id="그룹_794" data-name="그룹 794">
          <path id="패스_1511" data-name="패스 1511" d="M-771.44,782.668a7.429,7.429,0,0,1-3.889-1.206l4.152-6.2s-.018-.014-.052-.035a1.836,1.836,0,0,0-1.758.835,3.743,3.743,0,0,1,3.517-2.051,3.725,3.725,0,0,1,2.163.826,3.73,3.73,0,0,1,4.6,1.877,3.73,3.73,0,0,1-1.716,4.989,6.962,6.962,0,0,1-5.1.632c-.153.055-.31.1-.469.146A5.676,5.676,0,0,1-771.44,782.668Z" transform="translate(775.329 -774.007)" fill="#fbe6ba"/>
        </g>
      </g>
      <g id="그룹_800" data-name="그룹 800" transform="translate(16.242 31.536)">
        <g id="그룹_797" data-name="그룹 797" transform="translate(3.731 3.731)">
          <g id="그룹_796" data-name="그룹 796">
            <circle id="타원_106" data-name="타원 106" cx="2.216" cy="2.216" r="2.216" fill="#fff"/>
          </g>
        </g>
        <g id="그룹_799" data-name="그룹 799">
          <g id="그룹_798" data-name="그룹 798">
            <path id="패스_1512" data-name="패스 1512" d="M-794.112,783.007a5.954,5.954,0,0,1-5.947-5.947,5.954,5.954,0,0,1,5.947-5.947,5.954,5.954,0,0,1,5.947,5.947A5.954,5.954,0,0,1-794.112,783.007Zm0-7.461a1.516,1.516,0,0,0-1.514,1.514,1.515,1.515,0,0,0,1.514,1.514,1.515,1.515,0,0,0,1.514-1.514A1.516,1.516,0,0,0-794.112,775.546Z" transform="translate(800.059 -771.113)" fill="#fbe6ba"/>
          </g>
        </g>
      </g>
      <g id="그룹_805" data-name="그룹 805" transform="translate(40.48 31.536)">
        <g id="그룹_802" data-name="그룹 802" transform="translate(3.731 3.731)">
          <g id="그룹_801" data-name="그룹 801">
            <circle id="타원_107" data-name="타원 107" cx="2.216" cy="2.216" r="2.216" fill="#fff"/>
          </g>
        </g>
        <g id="그룹_804" data-name="그룹 804">
          <g id="그룹_803" data-name="그룹 803">
            <path id="패스_1513" data-name="패스 1513" d="M-745.384,783.007a5.954,5.954,0,0,1-5.947-5.947,5.954,5.954,0,0,1,5.947-5.947,5.954,5.954,0,0,1,5.947,5.947A5.954,5.954,0,0,1-745.384,783.007Zm0-7.461a1.516,1.516,0,0,0-1.515,1.514,1.516,1.516,0,0,0,1.515,1.514,1.516,1.516,0,0,0,1.514-1.514A1.516,1.516,0,0,0-745.384,775.546Z" transform="translate(751.331 -771.113)" fill="#fbe6ba"/>
          </g>
        </g>
      </g>
      <g id="그룹_808" data-name="그룹 808" transform="translate(0 27.75)">
        <g id="그룹_806" data-name="그룹 806" transform="translate(3.731 3.73)">
          <rect id="사각형_200" data-name="사각형 200" width="13.479" height="2.182" transform="matrix(0.942, -0.336, 0.336, 0.942, 0, 4.527)" fill="#fff"/>
        </g>
        <g id="그룹_807" data-name="그룹 807">
          <path id="패스_1514" data-name="패스 1514" d="M-828.248,777.547a3.732,3.732,0,0,1-3.514-2.478l-.733-2.055a3.73,3.73,0,0,1,.143-2.852,3.731,3.731,0,0,1,2.118-1.916l12.7-4.527a3.732,3.732,0,0,1,2.852.143,3.728,3.728,0,0,1,1.915,2.118l.733,2.055A3.73,3.73,0,0,1-814.3,772.8l-12.7,4.528A3.721,3.721,0,0,1-828.248,777.547Z" transform="translate(832.711 -763.503)" fill="#fbe6ba"/>
        </g>
      </g>
      <g id="그룹_811" data-name="그룹 811" transform="translate(0.528 26.144)">
        <g id="그룹_809" data-name="그룹 809" transform="translate(3.732 3.732)">
          <rect id="사각형_201" data-name="사각형 201" width="10.799" height="2.182" transform="matrix(0.942, -0.336, 0.336, 0.942, 0, 3.627)" fill="#fff"/>
        </g>
        <g id="그룹_810" data-name="그룹 810">
          <path id="패스_1515" data-name="패스 1515" d="M-827.186,773.418a3.728,3.728,0,0,1-1.6-.36,3.731,3.731,0,0,1-1.915-2.118l-.733-2.055a3.731,3.731,0,0,1,2.261-4.767L-819,760.491a3.73,3.73,0,0,1,4.767,2.261l.733,2.055a3.732,3.732,0,0,1-.143,2.852,3.732,3.732,0,0,1-2.118,1.916l-10.172,3.628A3.733,3.733,0,0,1-827.186,773.418Z" transform="translate(831.65 -760.273)" fill="#fbe6ba"/>
        </g>
      </g>
      <g id="그룹_816" data-name="그룹 816" transform="translate(1.995 30.255)">
        <g id="그룹_813" data-name="그룹 813" transform="translate(3.731 3.731)">
          <g id="그룹_812" data-name="그룹 812">
            <path id="패스_1516" data-name="패스 1516" d="M-808.39,786.8l-8.013,2.858-4.8-9.989,10.172-3.628Z" transform="translate(821.201 -776.038)" fill="#fff"/>
          </g>
        </g>
        <g id="그룹_815" data-name="그룹 815">
          <g id="그룹_814" data-name="그룹 814">
            <path id="패스_1517" data-name="패스 1517" d="M-820.171,789.616a3.731,3.731,0,0,1-3.363-2.116l-4.8-9.989a3.731,3.731,0,0,1-.088-3.034,3.731,3.731,0,0,1,2.2-2.1l10.172-3.628a3.73,3.73,0,0,1,3.021.229,3.728,3.728,0,0,1,1.855,2.4l2.64,10.759a3.731,3.731,0,0,1-2.37,4.4l-8.013,2.858A3.735,3.735,0,0,1-820.171,789.616Zm.359-11.6,1.55,3.226,1.678-.6-.853-3.474Z" transform="translate(828.701 -768.539)" fill="#fbe6ba"/>
          </g>
        </g>
      </g>
      <g id="그룹_819" data-name="그룹 819" transform="translate(4.593 20.727)">
        <g id="그룹_817" data-name="그룹 817" transform="translate(3.731 3.73)">
          <path id="패스_1518" data-name="패스 1518" d="M-812.152,757.4a.773.773,0,0,0-.988-.469l-1.561.557-.764.272a.774.774,0,0,0-.469.988l.26.728,1.289,3.616a.773.773,0,0,0,.988.469l.034-.012a.773.773,0,0,0,.469-.988l-1.03-2.888a.774.774,0,0,1,.469-.988l.833-.3a.773.773,0,0,0,.469-.988Z" transform="translate(815.978 -756.882)" fill="#fff"/>
        </g>
        <g id="그룹_818" data-name="그룹 818">
          <path id="패스_1519" data-name="패스 1519" d="M-817.435,763.565a4.461,4.461,0,0,1-1.918-.435,4.472,4.472,0,0,1-2.312-2.556l-1.549-4.344a4.51,4.51,0,0,1,2.727-5.756l2.326-.83a4.511,4.511,0,0,1,5.755,2.729,4.472,4.472,0,0,1-.173,3.443,4.505,4.505,0,0,1-.773,1.142l.206.576a4.472,4.472,0,0,1-.173,3.443,4.473,4.473,0,0,1-2.558,2.313A4.627,4.627,0,0,1-817.435,763.565Zm1.473-5.141-.005,0Zm-2.438-2.155a2.978,2.978,0,0,0,1.491.564,2.974,2.974,0,0,0,.452-.566,2.975,2.975,0,0,0-1.927,0Zm0,0Zm.757-5.167-.005,0Z" transform="translate(823.477 -749.383)" fill="#fbe6ba"/>
        </g>
      </g>
      <g id="그룹_822" data-name="그룹 822" transform="translate(10.667 32.975)">
        <g id="그룹_820" data-name="그룹 820" transform="translate(3.355 3.299)">
          <ellipse id="타원_108" data-name="타원 108" cx="2.301" cy="1.912" rx="2.301" ry="1.912" transform="translate(0 0.993) rotate(-12.467)" fill="#fff"/>
        </g>
        <g id="그룹_821" data-name="그룹 821">
          <path id="패스_1520" data-name="패스 1520" d="M-805.422,785.331a5.746,5.746,0,0,1-5.721-4.359,5.855,5.855,0,0,1,4.671-6.813,5.854,5.854,0,0,1,7.107,4.207h0a5.855,5.855,0,0,1-4.671,6.812A6.452,6.452,0,0,1-805.422,785.331Zm1.564-5.97-2.792.618a1.7,1.7,0,0,0,1.788,1.466,1.7,1.7,0,0,0,1-2.084Zm-1.575-1.49a.967.967,0,0,0-.212.023,1.7,1.7,0,0,0-1,2.084l2.793-.617A1.782,1.782,0,0,0-805.433,777.87Z" transform="translate(811.268 -774.007)" fill="#fbe6ba"/>
        </g>
      </g>
      <g id="그룹_825" data-name="그룹 825" transform="translate(2.307 39.153)">
        <g id="그룹_823" data-name="그룹 823" transform="translate(3.731 3.73)">
          <path id="패스_1521" data-name="패스 1521" d="M-814.17,795.322c-.058.867-1.734,1.706-3.432,1.592s-3.028-.91-2.969-1.777c.044-.661.118-.915,1.205-1.195a12.218,12.218,0,0,1,1.993.25,21.546,21.546,0,0,1,2.256-.076C-814.144,794.39-814.128,794.7-814.17,795.322Z" transform="translate(820.573 -793.926)" fill="#fff"/>
        </g>
        <g id="그룹_824" data-name="그룹 824">
          <path id="패스_1522" data-name="패스 1522" d="M-821.065,796.885c-.187,0-.372-.006-.557-.018a8.557,8.557,0,0,1-3.809-1.128,5.021,5.021,0,0,1-2.632-4.622c.162-2.416,1.47-3.906,4-4.557a6.6,6.6,0,0,1,2.927.087l.226.042c.113-.007.242-.02.375-.031a7.206,7.206,0,0,1,2.657.1,4.614,4.614,0,0,1,3.663,5.048h0C-814.434,795.036-817.836,796.885-821.065,796.885Zm-.594-5.582a2.856,2.856,0,0,0,.511,1.568,2.7,2.7,0,0,0,.531-1.291c0-.071.005-.139,0-.207Zm3.72.25h0Zm-3.72-.25,1.047.071a2.8,2.8,0,0,0-.508-1.572,2.822,2.822,0,0,0-.537,1.457C-821.658,791.274-821.659,791.288-821.659,791.3Z" transform="translate(828.073 -786.426)" fill="#fbe6ba"/>
        </g>
      </g>
      <g id="그룹_828" data-name="그룹 828" transform="translate(1.816 37.021)">
        <g id="그룹_826" data-name="그룹 826" transform="translate(3.731 3.731)">
          <path id="패스_1523" data-name="패스 1523" d="M-814.177,791.251c-.067,1-2,1.967-3.957,1.836s-3.491-1.049-3.424-2.049c.051-.762.137-1.055,1.39-1.377a14.076,14.076,0,0,1,2.3.287,24.859,24.859,0,0,1,2.6-.087C-814.147,790.175-814.129,790.538-814.177,791.251Z" transform="translate(821.56 -789.641)" fill="#fff"/>
        </g>
        <g id="그룹_827" data-name="그룹 827">
          <path id="패스_1524" data-name="패스 1524" d="M-821.545,793.059c-.2,0-.407-.007-.609-.02a9.3,9.3,0,0,1-4.137-1.22,5.233,5.233,0,0,1-2.759-4.8c.169-2.508,1.537-4.059,4.182-4.74a7.072,7.072,0,0,1,3.126.109c.122.022.237.044.336.061.149-.008.328-.026.514-.042a7.95,7.95,0,0,1,2.859.093,4.79,4.79,0,0,1,3.809,5.234C-814.452,791.122-818.088,793.059-821.545,793.059Zm-.119-5.89a2.165,2.165,0,0,0,.039.441c.009-.049.017-.1.023-.146a2.788,2.788,0,0,0-.027-.551C-821.644,786.994-821.656,787.08-821.664,787.168Zm-.005.061v0h0Z" transform="translate(829.06 -782.14)" fill="#fbe6ba"/>
        </g>
      </g>
      <g id="그룹_831" data-name="그룹 831" transform="translate(1.49 34.561)">
        <g id="그룹_829" data-name="그룹 829" transform="translate(3.731 3.73)">
          <path id="패스_1525" data-name="패스 1525" d="M-814.21,786.137c0,1.087-2.021,2.275-4.15,2.275s-3.855-.881-3.855-1.969c0-.828.071-1.152,1.4-1.592A15.309,15.309,0,0,1-818.3,785a26.977,26.977,0,0,1,2.809-.284C-814.256,784.971-814.21,785.362-814.21,786.137Z" transform="translate(822.216 -784.693)" fill="#fff"/>
        </g>
        <g id="그룹_830" data-name="그룹 830">
          <path id="패스_1526" data-name="패스 1526" d="M-822.13,788.374c-4.4,0-7.586-2.4-7.586-5.7,0-3.428,2.262-4.572,3.963-5.134a7.45,7.45,0,0,1,3.26-.1c.147.017.286.034.4.045.156-.019.417-.06.6-.088a8.365,8.365,0,0,1,2.989-.11,4.838,4.838,0,0,1,4.251,5.078C-814.249,786.078-818.34,788.374-822.13,788.374Z" transform="translate(829.716 -777.194)" fill="#fbe6ba"/>
        </g>
      </g>
      <g id="그룹_834" data-name="그룹 834" transform="translate(12.95 46.153)">
        <g id="그룹_832" data-name="그룹 832" transform="translate(3.731 3.731)">
          <path id="패스_1527" data-name="패스 1527" d="M-796.414,808a8.473,8.473,0,0,1,2.005.722c3.406,1.731,5.038,5.355,3.646,8.095l-8.414-5.133Z" transform="translate(799.177 -807.999)" fill="#fff"/>
        </g>
        <g id="그룹_833" data-name="그룹 833">
          <path id="패스_1528" data-name="패스 1528" d="M-794.532,816.777a3.729,3.729,0,0,1-1.943-.546l-8.414-5.132a3.732,3.732,0,0,1-1.721-2.481,3.731,3.731,0,0,1,.679-2.942l2.763-3.684a3.733,3.733,0,0,1,3.79-1.4,12.2,12.2,0,0,1,2.888,1.038,11.539,11.539,0,0,1,5.335,5.464,8.82,8.82,0,0,1-.052,7.648,3.728,3.728,0,0,1-2.308,1.9A3.705,3.705,0,0,1-794.532,816.777Z" transform="translate(806.677 -800.499)" fill="#fbe6ba"/>
        </g>
      </g>
      <g id="그룹_837" data-name="그룹 837" transform="translate(15.358 46.083)">
        <g id="그룹_835" data-name="그룹 835" transform="translate(3.732 3.731)">
          <path id="패스_1529" data-name="패스 1529" d="M-794.334,807.859a11.43,11.43,0,0,1,2.359.792c3.406,1.73,5.038,5.355,3.646,8.094" transform="translate(794.334 -807.859)" fill="#fff"/>
        </g>
        <g id="그룹_836" data-name="그룹 836">
          <path id="패스_1530" data-name="패스 1530" d="M-792.1,816.707a3.712,3.712,0,0,1-1.687-.406,3.73,3.73,0,0,1-1.636-5.016,1.494,1.494,0,0,0-.1-1.2,4.125,4.125,0,0,0-1.911-1.875,8.183,8.183,0,0,0-1.475-.475,3.731,3.731,0,0,1-2.837-4.448,3.732,3.732,0,0,1,4.448-2.837,15.423,15.423,0,0,1,3.242,1.108,11.539,11.539,0,0,1,5.335,5.464,8.82,8.82,0,0,1-.052,7.648A3.73,3.73,0,0,1-792.1,816.707Z" transform="translate(801.836 -800.357)" fill="#fbe6ba"/>
        </g>
      </g>
      <g id="그룹_840" data-name="그룹 840" transform="translate(41.614 49.916)">
        <g id="그룹_838" data-name="그룹 838" transform="translate(3.731 3.732)">
          <path id="패스_1531" data-name="패스 1531" d="M-741.552,818.038a8.48,8.48,0,0,1,1.683-1.308c3.284-1.952,7.22-1.392,8.789,1.25" transform="translate(741.552 -815.566)" fill="#fff"/>
        </g>
        <g id="그룹_839" data-name="그룹 839">
          <path id="패스_1532" data-name="패스 1532" d="M-745.321,818a3.717,3.717,0,0,1-2.63-1.085,3.73,3.73,0,0,1-.016-5.276,12.209,12.209,0,0,1,2.423-1.885,11.523,11.523,0,0,1,7.468-1.584,8.822,8.822,0,0,1,6.434,4.135,3.731,3.731,0,0,1-1.3,5.113,3.731,3.731,0,0,1-5.113-1.3,1.5,1.5,0,0,0-1.07-.56,4.124,4.124,0,0,0-2.606.611,4.738,4.738,0,0,0-.943.731A3.72,3.72,0,0,1-745.321,818Z" transform="translate(749.052 -808.065)" fill="#fbe6ba"/>
        </g>
      </g>
      <g id="그룹_843" data-name="그룹 843" transform="translate(41.614 49.916)">
        <g id="그룹_841" data-name="그룹 841" transform="translate(3.731 3.732)">
          <path id="패스_1533" data-name="패스 1533" d="M-741.552,818.038a8.48,8.48,0,0,1,1.683-1.308c3.284-1.952,7.22-1.392,8.789,1.25" transform="translate(741.552 -815.566)" fill="#fff"/>
        </g>
        <g id="그룹_842" data-name="그룹 842">
          <path id="패스_1534" data-name="패스 1534" d="M-745.321,818a3.717,3.717,0,0,1-2.63-1.085,3.73,3.73,0,0,1-.016-5.276,12.209,12.209,0,0,1,2.423-1.885,11.523,11.523,0,0,1,7.468-1.584,8.822,8.822,0,0,1,6.434,4.135,3.731,3.731,0,0,1-1.3,5.113,3.731,3.731,0,0,1-5.113-1.3,1.5,1.5,0,0,0-1.07-.56,4.124,4.124,0,0,0-2.606.611,4.738,4.738,0,0,0-.943.731A3.72,3.72,0,0,1-745.321,818Z" transform="translate(749.052 -808.065)" fill="#fbe6ba"/>
        </g>
      </g>
      <g id="그룹_845" data-name="그룹 845" transform="translate(61.815 46.355)">
        <g id="그룹_844" data-name="그룹 844">
          <path id="패스_1535" data-name="패스 1535" d="M-708.44,800.905" transform="translate(708.44 -800.905)" fill="#fff" stroke="#fbe6ba" stroke-linecap="round" stroke-linejoin="round" stroke-width="15"/>
        </g>
      </g>
      <g id="그룹_848" data-name="그룹 848" transform="translate(55.134 25.278)">
        <g id="그룹_846" data-name="그룹 846" transform="translate(3.721 3.73)">
          <path id="패스_1536" data-name="패스 1536" d="M-711.431,768.469a18.8,18.8,0,0,0-2.961-2.439" transform="translate(714.392 -766.03)" fill="#fff"/>
        </g>
        <g id="그룹_847" data-name="그룹 847">
          <path id="패스_1537" data-name="패스 1537" d="M-715.19,768.432a3.718,3.718,0,0,1-2.633-1.088,15.606,15.606,0,0,0-2.318-1.926,3.739,3.739,0,0,1-1.158-5.141,3.723,3.723,0,0,1,5.121-1.181,22.33,22.33,0,0,1,3.62,2.962,3.731,3.731,0,0,1,.01,5.276A3.721,3.721,0,0,1-715.19,768.432Z" transform="translate(721.872 -758.532)" fill="#fbe6ba"/>
        </g>
      </g>
      <g id="그룹_865" data-name="그룹 865" transform="translate(49.984 27.717)">
        <g id="그룹_851" data-name="그룹 851" transform="translate(8.403 12.963)">
          <g id="그룹_849" data-name="그룹 849" transform="translate(3.731 3.731)">
            <path id="패스_1538" data-name="패스 1538" d="M-706.963,797a3.965,3.965,0,0,1-.867,1.634" transform="translate(707.83 -796.998)" fill="#fff"/>
          </g>
          <g id="그룹_850" data-name="그룹 850">
            <path id="패스_1539" data-name="패스 1539" d="M-711.6,798.592a3.717,3.717,0,0,1-2.464-.93,3.731,3.731,0,0,1-.335-5.266.238.238,0,0,0,.055-.1,3.732,3.732,0,0,1,4.541-2.687,3.731,3.731,0,0,1,2.686,4.541,7.733,7.733,0,0,1-1.681,3.172A3.722,3.722,0,0,1-711.6,798.592Z" transform="translate(715.331 -789.496)" fill="#fbe6ba"/>
          </g>
        </g>
        <g id="그룹_864" data-name="그룹 864">
          <g id="그룹_854" data-name="그룹 854">
            <g id="그룹_852" data-name="그룹 852" transform="translate(3.729 3.729)">
              <path id="패스_1540" data-name="패스 1540" d="M-719.2,786.916a3.573,3.573,0,0,1-2.992-1.363,3.633,3.633,0,0,1-.3-3.9l-.043-1.17a4.006,4.006,0,0,1-1.806-1.883,3.766,3.766,0,0,1,1.659-5.057,3.633,3.633,0,0,1,3.87.561l2.186-3.172A15.907,15.907,0,0,1-712,779.186c1.2,6.713-4.625,6.655-4.625,6.655" transform="translate(724.728 -770.933)" fill="#fff"/>
            </g>
            <g id="그룹_853" data-name="그룹 853">
              <path id="패스_1541" data-name="패스 1541" d="M-723.111,786.881a7.331,7.331,0,0,1-5.8-2.816,7.326,7.326,0,0,1-1.369-5.812,7.835,7.835,0,0,1-1.2-1.837,7.5,7.5,0,0,1,3.455-10.018,7.213,7.213,0,0,1,4.051-.6l.515-.748a3.73,3.73,0,0,1,2.73-1.6,3.746,3.746,0,0,1,2.975,1.072A19.683,19.683,0,0,1-712.1,774.76c.738,4.121-.527,6.666-1.718,8.075a9.007,9.007,0,0,1-6.54,2.968,3.7,3.7,0,0,1-2.477,1.073Q-722.972,786.881-723.111,786.881Zm.253-7.462a3.738,3.738,0,0,1,2.48,1.059l.021-2.135h-.083a1.608,1.608,0,0,0,.931-.329,2.945,2.945,0,0,0,.068-1.937,9.766,9.766,0,0,0-.941-2.725,3.721,3.721,0,0,1-1.69.681,3.719,3.719,0,0,1-1.912-.239,3.731,3.731,0,0,1,1.41,2.786l.043,1.17A3.72,3.72,0,0,1-722.858,779.419Z" transform="translate(732.224 -763.435)" fill="#fbe6ba"/>
            </g>
          </g>
          <g id="그룹_857" data-name="그룹 857" transform="translate(5.523 14.923)">
            <g id="그룹_855" data-name="그룹 855" transform="translate(3.731 3.715)">
              <path id="패스_1542" data-name="패스 1542" d="M-711.044,800.905q-.13.119-.273.23a4.018,4.018,0,0,1-2.3.845" transform="translate(713.621 -800.905)" fill="#fff"/>
            </g>
            <g id="그룹_856" data-name="그룹 856">
              <path id="패스_1543" data-name="패스 1543" d="M-717.393,801.957a3.731,3.731,0,0,1-3.726-3.589,3.731,3.731,0,0,1,3.587-3.869.29.29,0,0,0,.165-.069,3.745,3.745,0,0,1,5.284.205,3.718,3.718,0,0,1-.2,5.261c-.165.152-.339.3-.52.439a7.715,7.715,0,0,1-4.444,1.621Z" transform="translate(721.121 -793.437)" fill="#fbe6ba"/>
            </g>
          </g>
          <g id="그룹_860" data-name="그룹 860" transform="translate(8.1 14.83)">
            <g id="그룹_858" data-name="그룹 858" transform="translate(3.731 3.743)">
              <path id="패스_1544" data-name="패스 1544" d="M-708.37,800.773l-.07.066" transform="translate(708.44 -800.773)" fill="#fff"/>
            </g>
            <g id="그룹_859" data-name="그룹 859">
              <path id="패스_1545" data-name="패스 1545" d="M-712.209,800.788a3.721,3.721,0,0,1-2.749-1.207,3.731,3.731,0,0,1,.224-5.272,3.721,3.721,0,0,1,5.268.065,3.74,3.74,0,0,1-.065,5.284c-.051.049-.1.1-.156.148A3.72,3.72,0,0,1-712.209,800.788Z" transform="translate(715.94 -793.249)" fill="#fbe6ba"/>
            </g>
          </g>
          <g id="그룹_863" data-name="그룹 863" transform="translate(8.17 14.61)">
            <g id="그룹_861" data-name="그룹 861" transform="translate(3.731 3.718)">
              <path id="패스_1546" data-name="패스 1546" d="M-708.066,800.282c-.074.084-.152.165-.234.244" transform="translate(708.3 -800.282)" fill="#fff"/>
            </g>
            <g id="그룹_862" data-name="그룹 862">
              <path id="패스_1547" data-name="패스 1547" d="M-712.069,800.5a3.721,3.721,0,0,1-2.69-1.145,3.731,3.731,0,0,1,.1-5.275,3.741,3.741,0,0,1,5.273-.349,3.721,3.721,0,0,1,.349,5.256q-.214.244-.451.471A3.718,3.718,0,0,1-712.069,800.5Z" transform="translate(715.8 -792.807)" fill="#fbe6ba"/>
            </g>
          </g>
        </g>
      </g>
      <g id="그룹_882" data-name="그룹 882" transform="translate(49.984 27.716)">
        <g id="그룹_868" data-name="그룹 868" transform="translate(8.403 12.964)">
          <g id="그룹_866" data-name="그룹 866" transform="translate(3.731 3.731)">
            <path id="패스_1548" data-name="패스 1548" d="M-706.963,797a3.965,3.965,0,0,1-.867,1.634" transform="translate(707.83 -796.998)" fill="#fff"/>
          </g>
          <g id="그룹_867" data-name="그룹 867">
            <path id="패스_1549" data-name="패스 1549" d="M-711.6,798.592a3.717,3.717,0,0,1-2.464-.93,3.731,3.731,0,0,1-.335-5.266.238.238,0,0,0,.055-.1,3.732,3.732,0,0,1,4.541-2.687,3.731,3.731,0,0,1,2.686,4.541,7.733,7.733,0,0,1-1.681,3.172A3.722,3.722,0,0,1-711.6,798.592Z" transform="translate(715.331 -789.496)" fill="#fbe6ba"/>
          </g>
        </g>
        <g id="그룹_881" data-name="그룹 881">
          <g id="그룹_871" data-name="그룹 871" transform="translate(0 2.293)">
            <g id="그룹_869" data-name="그룹 869" transform="translate(3.729 3.723)">
              <path id="패스_1550" data-name="패스 1550" d="M-722.534,782.792a4.006,4.006,0,0,1-1.806-1.883,3.767,3.767,0,0,1,1.659-5.057,3.634,3.634,0,0,1,3.87.561" transform="translate(724.728 -775.526)" fill="#fff"/>
            </g>
            <g id="그룹_870" data-name="그룹 870">
              <path id="패스_1551" data-name="패스 1551" d="M-726.3,782.763a3.712,3.712,0,0,1-1.689-.407,7.779,7.779,0,0,1-3.492-3.624,7.5,7.5,0,0,1,3.455-10.019,7.408,7.408,0,0,1,7.839,1.072,3.731,3.731,0,0,1,.481,5.254,3.733,3.733,0,0,1-4.267,1.073,3.732,3.732,0,0,1,1,4.611A3.731,3.731,0,0,1-726.3,782.763Z" transform="translate(732.224 -768.042)" fill="#fbe6ba"/>
            </g>
          </g>
          <g id="그룹_874" data-name="그룹 874" transform="translate(1.813 10.721)">
            <g id="그룹_872" data-name="그룹 872" transform="translate(3.723 3.731)">
              <path id="패스_1552" data-name="패스 1552" d="M-717.377,797.749a3.573,3.573,0,0,1-2.992-1.363,3.633,3.633,0,0,1-.3-3.9" transform="translate(721.095 -792.487)" fill="#fff"/>
            </g>
            <g id="그룹_873" data-name="그룹 873">
              <path id="패스_1553" data-name="패스 1553" d="M-721.279,797.712a7.331,7.331,0,0,1-5.8-2.816,7.4,7.4,0,0,1-.662-7.883,3.731,3.731,0,0,1,5.022-1.615,3.731,3.731,0,0,1,1.7,4.852,3.738,3.738,0,0,1,3.606,3.59A3.723,3.723,0,0,1-721,797.707C-721.093,797.71-721.186,797.712-721.279,797.712Zm.154-7.241Z" transform="translate(728.579 -784.986)" fill="#fbe6ba"/>
            </g>
          </g>
          <g id="그룹_877" data-name="그룹 877" transform="translate(5.523 14.598)">
            <g id="그룹_875" data-name="그룹 875" transform="translate(3.731 3.731)">
              <path id="패스_1554" data-name="패스 1554" d="M-710.74,800.282a4.152,4.152,0,0,1-.576.54,4.018,4.018,0,0,1-2.3.845" transform="translate(713.621 -800.282)" fill="#fff"/>
            </g>
            <g id="그룹_876" data-name="그룹 876">
              <path id="패스_1555" data-name="패스 1555" d="M-717.393,801.627a3.731,3.731,0,0,1-3.726-3.589,3.731,3.731,0,0,1,3.587-3.869.29.29,0,0,0,.165-.069.445.445,0,0,0,.057-.053,3.73,3.73,0,0,1,5.265-.333,3.731,3.731,0,0,1,.333,5.266A7.87,7.87,0,0,1-712.8,800a7.718,7.718,0,0,1-4.445,1.622Z" transform="translate(721.121 -792.781)" fill="#fbe6ba"/>
            </g>
          </g>
          <g id="그룹_880" data-name="그룹 880" transform="translate(8.1)">
            <g id="그룹_878" data-name="그룹 878" transform="translate(3.73 3.731)">
              <path id="패스_1556" data-name="패스 1556" d="M-708.44,785.842s5.827.057,4.625-6.655a15.907,15.907,0,0,0-4.625-8.253" transform="translate(708.44 -770.933)" fill="#fff"/>
            </g>
            <g id="그룹_879" data-name="그룹 879">
              <path id="패스_1557" data-name="패스 1557" d="M-712.211,785.8h-.035l.073-7.461h-.083a1.608,1.608,0,0,0,.931-.329,2.944,2.944,0,0,0,.068-1.937,12.309,12.309,0,0,0-3.586-6.268,3.731,3.731,0,0,1-.01-5.276,3.73,3.73,0,0,1,5.276-.01,19.684,19.684,0,0,1,5.664,10.238c.738,4.121-.527,6.666-1.718,8.075A9.016,9.016,0,0,1-712.211,785.8Z" transform="translate(715.939 -763.433)" fill="#fbe6ba"/>
            </g>
          </g>
        </g>
      </g>
      <g id="그룹_885" data-name="그룹 885" transform="translate(51.979 35.6)">
        <g id="그룹_883" data-name="그룹 883" transform="translate(3.323 3.455)">
          <ellipse id="타원_109" data-name="타원 109" cx="1.161" cy="1.99" rx="1.161" ry="1.99" transform="translate(0 0.614) rotate(-15.347)" fill="#fff"/>
        </g>
        <g id="그룹_884" data-name="그룹 884">
          <path id="패스_1558" data-name="패스 1558" d="M-722.933,790.644c-2.25,0-4.3-1.712-5.029-4.385a6.523,6.523,0,0,1-.052-3.394,4.7,4.7,0,0,1,3.256-3.417c2.69-.739,5.367,1.077,6.23,4.221h0c.862,3.143-.514,6.071-3.2,6.81A4.532,4.532,0,0,1-722.933,790.644Zm.807-5.987-3.6.988a2.536,2.536,0,0,0,2.938,1,2.813,2.813,0,0,0,1.982-1.859,1.087,1.087,0,0,0,.037-.5,2.532,2.532,0,0,0-2.938-1,2.536,2.536,0,0,0-2.019,2.358Z" transform="translate(728.215 -779.284)" fill="#fbe6ba"/>
        </g>
      </g>
    </g>
    <g id="그룹_889" data-name="그룹 889" transform="translate(-766.594 713.751)">
      <g id="그룹_887" data-name="그룹 887" transform="translate(0.745 0.746)">
        <path id="패스_1559" data-name="패스 1559" d="M-679.11,730.264a.052.052,0,0,1,.013-.074,4.825,4.825,0,0,0,2.039-3.895,5.125,5.125,0,0,0-5.289-4.945,5.2,5.2,0,0,0-5.2,4.071.05.05,0,0,1-.046.04.05.05,0,0,1-.046-.04,5.2,5.2,0,0,0-5.2-4.071,5.125,5.125,0,0,0-5.289,4.945,4.825,4.825,0,0,0,2.039,3.895.052.052,0,0,1,.013.074,11.957,11.957,0,0,0-.677,12.844s2.113,4.342,8.814,4.643c0,0,.124.008.34.012h.012c.216,0,.34-.012.34-.012,6.7-.3,8.815-4.643,8.815-4.643A11.957,11.957,0,0,0-679.11,730.264Z" transform="translate(698.293 -721.351)" fill="#fbe6ba"/>
      </g>
      <g id="그룹_888" data-name="그룹 888" transform="translate(0 0)">
        <path id="패스_1560" data-name="패스 1560" d="M-688.323,747.756c-.279-.005-.413-.014-.413-.014-7.053-.317-9.347-4.868-9.441-5.062a12.721,12.721,0,0,1,.377-13.064,5.491,5.491,0,0,1-1.828-4.074,5.877,5.877,0,0,1,6.035-5.691,6.1,6.1,0,0,1,5.247,2.881,6.1,6.1,0,0,1,5.248-2.881,5.877,5.877,0,0,1,6.035,5.691,5.489,5.489,0,0,1-1.828,4.074,12.732,12.732,0,0,1,.371,13.078c-.088.181-2.382,4.732-9.445,5.049C-687.966,747.744-688.1,747.751-688.323,747.756Zm-5.271-26.413a4.386,4.386,0,0,0-4.542,4.2,4.07,4.07,0,0,0,1.734,3.292.8.8,0,0,1,.182,1.108,11.272,11.272,0,0,0-.621,12.072c.086.172,2.046,3.963,8.184,4.239.017,0,.13.006.323.011.172,0,.285-.01.292-.01,6.2-.279,8.168-4.186,8.187-4.225a11.282,11.282,0,0,0-.613-12.084.8.8,0,0,1,.181-1.111,4.068,4.068,0,0,0,1.732-3.291,4.386,4.386,0,0,0-4.542-4.2,4.446,4.446,0,0,0-4.468,3.465.8.8,0,0,1-.657.636.76.76,0,0,1-.244,0,.794.794,0,0,1-.658-.634A4.446,4.446,0,0,0-693.593,721.343Zm-3.69,8.695,0,0Zm17.877,0,0,0Zm.151-.961Z" transform="translate(699.791 -719.851)" fill="#ba5219"/>
      </g>
    </g>
    <g id="그룹_892" data-name="그룹 892" transform="translate(-762.507 719.93)">
      <g id="그룹_890" data-name="그룹 890" transform="translate(0.746 0.747)">
        <path id="패스_1561" data-name="패스 1561" d="M-690.073,735.991a2.39,2.39,0,0,1,.316-1.131,2.155,2.155,0,0,1,.8-.8,2.152,2.152,0,0,1,1.093-.29h8.755a2.091,2.091,0,0,1,1.125.311,2.278,2.278,0,0,1,.8.841,2.336,2.336,0,0,1,.295,1.154,2.24,2.24,0,0,1-.688,1.574,2.115,2.115,0,0,1-1.53.645h-1.88v9.378a2.447,2.447,0,0,1-.344,1.284,2.635,2.635,0,0,1-.918.918,2.444,2.444,0,0,1-1.284.344,2.526,2.526,0,0,1-1.306-.344,2.543,2.543,0,0,1-.929-.945,2.571,2.571,0,0,1-.344-1.3v-9.378h-1.771a2.063,2.063,0,0,1-1.546-.667A2.225,2.225,0,0,1-690.073,735.991Z" transform="translate(690.073 -733.773)" fill="#fbe6ba"/>
      </g>
      <g id="그룹_891" data-name="그룹 891" transform="translate(0)">
        <path id="패스_1562" data-name="패스 1562" d="M-684.291,750.214a3.27,3.27,0,0,1-1.685-.448,3.282,3.282,0,0,1-1.2-1.217,3.322,3.322,0,0,1-.443-1.671v-8.632h-1.025a2.794,2.794,0,0,1-2.085-.9,2.959,2.959,0,0,1-.847-2.112v-.026a3.132,3.132,0,0,1,.416-1.479,2.9,2.9,0,0,1,1.072-1.07,2.892,2.892,0,0,1,1.465-.39h8.755a2.839,2.839,0,0,1,1.519.424,3.029,3.029,0,0,1,1.057,1.111,3.091,3.091,0,0,1,.389,1.517,2.99,2.99,0,0,1-.911,2.106,2.847,2.847,0,0,1-2.053.859H-681v8.632a3.2,3.2,0,0,1-.451,1.668,3.394,3.394,0,0,1-1.174,1.174A3.2,3.2,0,0,1-684.291,750.214Zm-5.789-14.963a1.47,1.47,0,0,0,.432,1.066,1.318,1.318,0,0,0,1.008.437h1.771a.746.746,0,0,1,.746.746v9.378a1.815,1.815,0,0,0,.246.93,1.786,1.786,0,0,0,.66.673,1.844,1.844,0,0,0,1.828,0,1.883,1.883,0,0,0,.663-.662,1.7,1.7,0,0,0,.238-.9v-9.378a.746.746,0,0,1,.746-.746h1.88a1.365,1.365,0,0,0,1.007-.43,1.488,1.488,0,0,0,.466-1.068,1.57,1.57,0,0,0-.2-.765,1.521,1.521,0,0,0-.538-.569,1.348,1.348,0,0,0-.733-.2h-8.755a1.4,1.4,0,0,0-.72.191,1.407,1.407,0,0,0-.526.527A1.634,1.634,0,0,0-690.081,735.25Z" transform="translate(691.573 -732.272)" fill="#ba5219"/>
      </g>
    </g>
    <g id="그룹_895" data-name="그룹 895" transform="translate(-740.147 719.733)">
      <g id="그룹_893" data-name="그룹 893" transform="translate(0.746 0.746)">
        <path id="패스_1563" data-name="패스 1563" d="M-644.334,749.225a3.147,3.147,0,0,1-.787-2.066V736.033a2.644,2.644,0,0,1,.443-1.5,2.5,2.5,0,0,1,1.175-.962,2.412,2.412,0,0,1,.94-.2,2.958,2.958,0,0,1,2.219,1.224l5.684,6.743v-5.312a2.533,2.533,0,0,1,.776-1.858,2.494,2.494,0,0,1,1.814-.754,2.657,2.657,0,0,1,1,.191,2.2,2.2,0,0,1,.815.563,2.492,2.492,0,0,1,.557.836,2.632,2.632,0,0,1,.207,1.022v11.4a4.575,4.575,0,0,1-.044.514,2.4,2.4,0,0,1-.487,1.076,2.63,2.63,0,0,1-.913.738,2.594,2.594,0,0,1-1.158.262,2.505,2.505,0,0,1-1.344-.372,2.719,2.719,0,0,1-.645-.568l-5.869-7.2v5.53a2.552,2.552,0,0,1-.754,1.88,2.414,2.414,0,0,1-1.771.732A2.41,2.41,0,0,1-644.334,749.225Z" transform="translate(645.121 -733.377)" fill="#fbe6ba"/>
      </g>
      <g id="그룹_894" data-name="그룹 894" transform="translate(0)">
        <path id="패스_1564" data-name="패스 1564" d="M-632.847,750.015a3.252,3.252,0,0,1-1.737-.483,3.459,3.459,0,0,1-.847-.752l-4.529-5.557v3.434a3.287,3.287,0,0,1-.972,2.407,3.147,3.147,0,0,1-2.3.951,3.139,3.139,0,0,1-2.408-1.04l-.022-.025a3.89,3.89,0,0,1-.961-2.545V735.279a3.394,3.394,0,0,1,.567-1.911,3.248,3.248,0,0,1,1.518-1.241,3.146,3.146,0,0,1,1.218-.251,3.674,3.674,0,0,1,2.785,1.484l4.371,5.187v-3.269a3.266,3.266,0,0,1,1-2.386,3.23,3.23,0,0,1,2.341-.972,3.413,3.413,0,0,1,1.278.245,2.953,2.953,0,0,1,1.087.752,3.167,3.167,0,0,1,.695,1.052,3.384,3.384,0,0,1,.265,1.31v11.4a5.168,5.168,0,0,1-.05.607,3.169,3.169,0,0,1-.642,1.448,3.371,3.371,0,0,1-1.169.944A3.346,3.346,0,0,1-632.847,750.015Zm-7.859-9.635a.748.748,0,0,1,.579.275l5.869,7.2a1.977,1.977,0,0,0,.485.421,1.916,1.916,0,0,0,1.757.058,1.88,1.88,0,0,0,.656-.531,1.643,1.643,0,0,0,.337-.747,3.719,3.719,0,0,0,.032-.38v-11.4a1.881,1.881,0,0,0-.15-.735,1.752,1.752,0,0,0-.388-.588,1.525,1.525,0,0,0-.574-.406,1.9,1.9,0,0,0-.721-.137,1.759,1.759,0,0,0-1.289.539,1.8,1.8,0,0,0-.555,1.327v5.312a.746.746,0,0,1-.49.7.746.746,0,0,1-.827-.22l-5.684-6.743c-.766-.893-1.5-1.156-2.3-.82a1.769,1.769,0,0,0-.842.686,1.9,1.9,0,0,0-.318,1.085v11.126a2.4,2.4,0,0,0,.6,1.574,1.659,1.659,0,0,0,1.3.544,1.658,1.658,0,0,0,1.244-.514,1.819,1.819,0,0,0,.535-1.352v-5.53a.746.746,0,0,1,.5-.7A.737.737,0,0,1-640.706,740.38Z" transform="translate(646.621 -731.877)" fill="#ba5219"/>
      </g>
    </g>
    <g id="그룹_898" data-name="그룹 898" transform="translate(-722.306 719.755)">
      <g id="그룹_896" data-name="그룹 896" transform="translate(0.746 0.746)">
        <path id="패스_1565" data-name="패스 1565" d="M-599.232,745.411a2.487,2.487,0,0,0,1.639-.885h-1.345a2.179,2.179,0,0,1-1.623-.677,2.249,2.249,0,0,1-.662-1.628,2.413,2.413,0,0,1,.317-1.142,2.24,2.24,0,0,1,.815-.814,2.186,2.186,0,0,1,1.131-.306h4.339q2.394,0,2.394,2.634a8.464,8.464,0,0,1-.153,1.574,6.255,6.255,0,0,1-.754,2.1,7.214,7.214,0,0,1-1.7,2.049,7.289,7.289,0,0,1-2.371,1.306,9.231,9.231,0,0,1-2.946.448,13.236,13.236,0,0,1-2.033-.174,9.318,9.318,0,0,1-2.771-.913,7.744,7.744,0,0,1-2.17-1.678,8.3,8.3,0,0,1-1.486-2.339,8.141,8.141,0,0,1-.645-3.148,7.916,7.916,0,0,1,1.066-3.973,8.74,8.74,0,0,1,3.011-3.1,8.936,8.936,0,0,1,4.831-1.323q.35,0,1.006.044a10.571,10.571,0,0,1,2.284.448,9.683,9.683,0,0,1,2.011.918q1.912,1.257,1.913,2.689a2.021,2.021,0,0,1-.787,1.541,1.962,1.962,0,0,1-1.345.492,3.211,3.211,0,0,1-1.235-.274h-.022l-.94-.491a4.107,4.107,0,0,0-.47-.241,6.089,6.089,0,0,0-2.546-.634,3.762,3.762,0,0,0-1.705.377,3.3,3.3,0,0,0-1.257,1.109,4.189,4.189,0,0,0-.667,1.694,2.855,2.855,0,0,0-.066.6,4.134,4.134,0,0,0,.066.743,4.223,4.223,0,0,0,.7,1.667,3.383,3.383,0,0,0,1.273,1.071,3.913,3.913,0,0,0,1.743.378A4.769,4.769,0,0,0-599.232,745.411Z" transform="translate(609.254 -733.421)" fill="#fbe6ba"/>
      </g>
      <g id="그룹_897" data-name="그룹 897" transform="translate(0)">
        <path id="패스_1566" data-name="패스 1566" d="M-600.9,750.059a13.988,13.988,0,0,1-2.149-.184,10.115,10.115,0,0,1-3-.989,8.526,8.526,0,0,1-2.377-1.838,9.083,9.083,0,0,1-1.619-2.547,8.922,8.922,0,0,1-.7-3.44,8.693,8.693,0,0,1,1.163-4.342,9.521,9.521,0,0,1,3.263-3.361,9.712,9.712,0,0,1,5.228-1.437c.252,0,.6.015,1.055.045a11.384,11.384,0,0,1,2.458.481,10.467,10.467,0,0,1,2.174.992c1.516,1,2.273,2.11,2.273,3.327a2.662,2.662,0,0,1-.853,1.926c1.146.449,1.76,1.527,1.76,3.145a9.265,9.265,0,0,1-.166,1.713,7,7,0,0,1-.835,2.322,8.005,8.005,0,0,1-1.875,2.261,8.074,8.074,0,0,1-2.612,1.44A10.011,10.011,0,0,1-600.9,750.059Zm-.2-16.646a8.242,8.242,0,0,0-4.436,1.21,8.051,8.051,0,0,0-2.758,2.834,7.217,7.217,0,0,0-.968,3.6,7.437,7.437,0,0,0,.588,2.862,7.589,7.589,0,0,0,1.351,2.125,7.045,7.045,0,0,0,1.962,1.518,8.632,8.632,0,0,0,2.55.838,12.559,12.559,0,0,0,1.907.164,8.548,8.548,0,0,0,2.709-.41,6.589,6.589,0,0,0,2.131-1.172,6.507,6.507,0,0,0,1.525-1.839,5.535,5.535,0,0,0,.667-1.845,7.87,7.87,0,0,0,.145-1.463c0-1.659-.792-1.888-1.647-1.888h-4.339a1.435,1.435,0,0,0-.752.2,1.49,1.49,0,0,0-.549.547,1.659,1.659,0,0,0-.216.793,1.484,1.484,0,0,0,.449,1.082,1.433,1.433,0,0,0,1.089.452h1.344a.747.747,0,0,1,.665.406.747.747,0,0,1-.059.777,3.2,3.2,0,0,1-2.085,1.178,5.532,5.532,0,0,1-1.319.159,4.67,4.67,0,0,1-2.071-.453,4.139,4.139,0,0,1-1.549-1.3,4.99,4.99,0,0,1-.827-1.956,4.992,4.992,0,0,1-.08-.891,3.653,3.653,0,0,1,.082-.758,4.908,4.908,0,0,1,.781-1.959,4.055,4.055,0,0,1,1.539-1.355,5.614,5.614,0,0,1,4.9.248,4.463,4.463,0,0,1,.526.269l.827.432.052.018a1.633,1.633,0,0,0,1.8-.089,1.309,1.309,0,0,0,.534-.981c0-.683-.53-1.377-1.576-2.065a8.949,8.949,0,0,0-1.833-.833,9.814,9.814,0,0,0-2.115-.414C-600.563,733.427-600.884,733.413-601.1,733.413Zm-.131,4.492a3.044,3.044,0,0,0-1.372.3,2.547,2.547,0,0,0-.975.864,3.475,3.475,0,0,0-.546,1.4,2.278,2.278,0,0,0-.055.476,3.433,3.433,0,0,0,.053.609,3.508,3.508,0,0,0,.57,1.363,2.626,2.626,0,0,0,1,.838,3.094,3.094,0,0,0,1.237.3,3.125,3.125,0,0,1-.525-.434,2.983,2.983,0,0,1-.873-2.15,3.18,3.18,0,0,1,.417-1.516,2.988,2.988,0,0,1,1.082-1.083,2.929,2.929,0,0,1,1.51-.409h.687A5.4,5.4,0,0,0-601.231,737.906Z" transform="translate(610.754 -731.921)" fill="#ba5219"/>
      </g>
    </g>
    <g id="그룹_901" data-name="그룹 901" transform="translate(-758.309 719.777)">
      <g id="그룹_899" data-name="그룹 899" transform="translate(0.746 0.746)">
        <path id="패스_1567" data-name="패스 1567" d="M-663.1,759.548l-.019-3.784-2.777.021V736a2.54,2.54,0,0,0-2.54-2.539A2.54,2.54,0,0,0-670.971,736v19.821l-7.451.058-.08,3.783-3.1.025-.033,3.784,2.192-.017,1.779,16.976,13.415.012,1.767-17.12,2.117-.016.033-3.784Z" transform="translate(681.635 -733.465)" fill="#fbe6ba"/>
      </g>
      <g id="그룹_900" data-name="그룹 900" transform="translate(0)">
        <path id="패스_1568" data-name="패스 1568" d="M-665,780.438h0l-13.414-.011a.746.746,0,0,1-.741-.669l-1.709-16.3-1.515.012a.666.666,0,0,1-.533-.219.746.746,0,0,1-.218-.534l.033-3.783a.746.746,0,0,1,.74-.74l2.376-.019.064-3.058a.746.746,0,0,1,.74-.731l6.711-.052V735.25a3.289,3.289,0,0,1,3.285-3.286,3.29,3.29,0,0,1,3.286,3.286v19.03l2.025-.016h.006a.743.743,0,0,1,.524.215.745.745,0,0,1,.222.527l.015,3.036,2.017-.016h.006a.747.747,0,0,1,.528.219.748.748,0,0,1,.218.534l-.033,3.784a.746.746,0,0,1-.74.74l-1.45.011-1.7,16.456A.746.746,0,0,1-665,780.438Zm-12.742-1.5,12.069.01,1.7-16.45a.747.747,0,0,1,.737-.67l1.384-.01.02-2.292-2.007.016a.712.712,0,0,1-.53-.215.746.746,0,0,1-.222-.527l-.015-3.035-2.029.016a.79.79,0,0,1-.531-.217.745.745,0,0,1-.22-.529V735.25a1.8,1.8,0,0,0-1.794-1.793,1.8,1.8,0,0,0-1.793,1.793v19.821a.746.746,0,0,1-.74.746l-6.726.052-.064,3.059a.747.747,0,0,1-.74.731l-2.367.019-.02,2.291,1.433-.011h.006a.746.746,0,0,1,.742.668Z" transform="translate(683.135 -731.965)" fill="#ba5219"/>
      </g>
    </g>
    <g id="그룹_914" data-name="그룹 914" transform="translate(-754.071 747.076)">
      <g id="그룹_904" data-name="그룹 904" transform="translate(0 0.196)">
        <g id="그룹_902" data-name="그룹 902" transform="translate(0.746 0.746)">
          <path id="패스_1569" data-name="패스 1569" d="M-673.114,790.96a2.389,2.389,0,0,1,.316-1.131,2.155,2.155,0,0,1,.8-.8,2.152,2.152,0,0,1,1.093-.29h8.755a2.09,2.09,0,0,1,1.125.311,2.277,2.277,0,0,1,.8.842,2.34,2.34,0,0,1,.3,1.153,2.24,2.24,0,0,1-.689,1.574,2.115,2.115,0,0,1-1.53.645h-1.88v9.378a2.449,2.449,0,0,1-.344,1.284,2.637,2.637,0,0,1-.918.918,2.444,2.444,0,0,1-1.284.345,2.526,2.526,0,0,1-1.306-.345,2.54,2.54,0,0,1-.929-.945,2.57,2.57,0,0,1-.344-1.3v-9.378h-1.771a2.063,2.063,0,0,1-1.546-.667A2.224,2.224,0,0,1-673.114,790.96Z" transform="translate(673.114 -788.742)" fill="#fbe6ba"/>
        </g>
        <g id="그룹_903" data-name="그룹 903">
          <path id="패스_1570" data-name="패스 1570" d="M-667.332,805.183a3.269,3.269,0,0,1-1.685-.448,3.285,3.285,0,0,1-1.2-1.217,3.322,3.322,0,0,1-.443-1.671v-8.632h-1.025a2.793,2.793,0,0,1-2.085-.9,2.957,2.957,0,0,1-.847-2.112v-.026a3.129,3.129,0,0,1,.416-1.478,2.914,2.914,0,0,1,1.071-1.071,2.905,2.905,0,0,1,1.466-.389h8.755a2.832,2.832,0,0,1,1.519.424,3.027,3.027,0,0,1,1.057,1.111,3.091,3.091,0,0,1,.389,1.517,2.989,2.989,0,0,1-.911,2.106,2.846,2.846,0,0,1-2.053.86h-1.134v8.631a3.2,3.2,0,0,1-.451,1.668,3.4,3.4,0,0,1-1.174,1.174A3.191,3.191,0,0,1-667.332,805.183Zm-5.789-14.963a1.469,1.469,0,0,0,.432,1.066,1.318,1.318,0,0,0,1.008.437h1.771a.746.746,0,0,1,.746.746v9.378a1.821,1.821,0,0,0,.245.929,1.791,1.791,0,0,0,.66.673,1.846,1.846,0,0,0,1.828,0,1.881,1.881,0,0,0,.663-.663,1.7,1.7,0,0,0,.238-.9v-9.377a.746.746,0,0,1,.746-.746h1.88a1.368,1.368,0,0,0,1.007-.431,1.489,1.489,0,0,0,.466-1.069,1.569,1.569,0,0,0-.2-.765,1.521,1.521,0,0,0-.538-.569,1.347,1.347,0,0,0-.733-.2h-8.755a1.408,1.408,0,0,0-.721.19,1.409,1.409,0,0,0-.525.527A1.633,1.633,0,0,0-673.122,790.22Z" transform="translate(674.614 -787.242)" fill="#ba5219"/>
        </g>
      </g>
      <g id="그룹_907" data-name="그룹 907" transform="translate(14.77 0.044)">
        <g id="그룹_905" data-name="그룹 905" transform="translate(0.746 0.746)">
          <path id="패스_1571" data-name="패스 1571" d="M-642.656,804.3a2.553,2.553,0,0,1-.765-1.879v-11.4a2.485,2.485,0,0,1,.759-1.841,2.527,2.527,0,0,1,1.842-.749,2.524,2.524,0,0,1,1.284.344,2.517,2.517,0,0,1,.94.946,2.612,2.612,0,0,1,.345,1.323v11.422a2.7,2.7,0,0,1-.192,1,2.491,2.491,0,0,1-.562.859,2.537,2.537,0,0,1-1.815.732A2.429,2.429,0,0,1-642.656,804.3Z" transform="translate(643.42 -788.434)" fill="#fbe6ba"/>
        </g>
        <g id="그룹_906" data-name="그룹 906">
          <path id="패스_1572" data-name="패스 1572" d="M-641.573,805.05a3.162,3.162,0,0,1-2.37-.978,3.288,3.288,0,0,1-.977-2.4v-11.4a3.218,3.218,0,0,1,.981-2.373,3.261,3.261,0,0,1,2.366-.964,3.272,3.272,0,0,1,1.657.444A3.265,3.265,0,0,1-638.7,788.6a3.359,3.359,0,0,1,.443,1.693v11.421a3.455,3.455,0,0,1-.244,1.273,3.225,3.225,0,0,1-.728,1.112A3.281,3.281,0,0,1-641.573,805.05Zm0-16.623a1.793,1.793,0,0,0-1.318.534,1.73,1.73,0,0,0-.537,1.31v11.4a1.818,1.818,0,0,0,.546,1.351l.012.013a1.677,1.677,0,0,0,1.3.523,1.8,1.8,0,0,0,1.3-.525,1.717,1.717,0,0,0,.383-.592,1.942,1.942,0,0,0,.14-.727V790.293a1.865,1.865,0,0,0-.246-.952,1.769,1.769,0,0,0-.666-.67A1.773,1.773,0,0,0-641.573,788.427Z" transform="translate(644.92 -786.935)" fill="#ba5219"/>
        </g>
      </g>
      <g id="그룹_910" data-name="그룹 910" transform="translate(22.36 0)">
        <g id="그룹_908" data-name="그룹 908" transform="translate(0.746 0.746)">
          <path id="패스_1573" data-name="패스 1573" d="M-627.375,804.194a3.146,3.146,0,0,1-.787-2.066V791a2.645,2.645,0,0,1,.443-1.5,2.5,2.5,0,0,1,1.175-.961,2.411,2.411,0,0,1,.939-.2,2.96,2.96,0,0,1,2.219,1.224l5.684,6.744V791a2.533,2.533,0,0,1,.776-1.858,2.5,2.5,0,0,1,1.814-.754,2.669,2.669,0,0,1,1,.191,2.2,2.2,0,0,1,.815.563,2.494,2.494,0,0,1,.557.836,2.633,2.633,0,0,1,.207,1.022v11.4a4.7,4.7,0,0,1-.044.513,2.4,2.4,0,0,1-.486,1.076,2.618,2.618,0,0,1-.913.738,2.593,2.593,0,0,1-1.158.263,2.5,2.5,0,0,1-1.345-.372,2.73,2.73,0,0,1-.645-.569l-5.869-7.2v5.531a2.551,2.551,0,0,1-.754,1.879,2.414,2.414,0,0,1-1.771.733A2.41,2.41,0,0,1-627.375,804.194Z" transform="translate(628.162 -788.346)" fill="#fbe6ba"/>
        </g>
        <g id="그룹_909" data-name="그룹 909">
          <path id="패스_1574" data-name="패스 1574" d="M-615.888,804.985a3.257,3.257,0,0,1-1.737-.483,3.47,3.47,0,0,1-.847-.752L-623,798.193v3.434a3.28,3.28,0,0,1-.972,2.406,3.144,3.144,0,0,1-2.3.952,3.141,3.141,0,0,1-2.407-1.04l-.022-.025a3.888,3.888,0,0,1-.961-2.545V790.249a3.391,3.391,0,0,1,.567-1.91,3.245,3.245,0,0,1,1.518-1.241,3.146,3.146,0,0,1,1.218-.251,3.674,3.674,0,0,1,2.785,1.484l4.371,5.186v-3.269a3.266,3.266,0,0,1,1-2.386,3.231,3.231,0,0,1,2.341-.972,3.406,3.406,0,0,1,1.278.245,2.953,2.953,0,0,1,1.087.752,3.172,3.172,0,0,1,.695,1.052,3.38,3.38,0,0,1,.265,1.31v11.4a5.152,5.152,0,0,1-.05.606,3.164,3.164,0,0,1-.642,1.447,3.364,3.364,0,0,1-1.169.944A3.345,3.345,0,0,1-615.888,804.985Zm-7.859-9.635a.747.747,0,0,1,.578.275l5.869,7.2a1.98,1.98,0,0,0,.484.421,1.916,1.916,0,0,0,1.757.058,1.88,1.88,0,0,0,.656-.531,1.644,1.644,0,0,0,.337-.747c.017-.15.032-.29.032-.38v-11.4a1.879,1.879,0,0,0-.15-.735,1.757,1.757,0,0,0-.388-.589,1.528,1.528,0,0,0-.574-.406,1.89,1.89,0,0,0-.721-.137,1.76,1.76,0,0,0-1.29.539,1.8,1.8,0,0,0-.554,1.327v5.311a.746.746,0,0,1-.49.7.746.746,0,0,1-.827-.22l-5.683-6.744c-.766-.893-1.5-1.156-2.3-.82a1.765,1.765,0,0,0-.842.686,1.9,1.9,0,0,0-.318,1.085v11.126a2.4,2.4,0,0,0,.6,1.574,1.659,1.659,0,0,0,1.3.544,1.658,1.658,0,0,0,1.244-.514,1.817,1.817,0,0,0,.535-1.351V796.1a.747.747,0,0,1,.5-.7A.748.748,0,0,1-623.747,795.35Z" transform="translate(629.662 -786.847)" fill="#ba5219"/>
        </g>
      </g>
      <g id="그룹_913" data-name="그룹 913" transform="translate(40.201 0.022)">
        <g id="그룹_911" data-name="그룹 911" transform="translate(0.746 0.746)">
          <path id="패스_1575" data-name="패스 1575" d="M-582.273,800.38a2.489,2.489,0,0,0,1.64-.885h-1.345a2.179,2.179,0,0,1-1.622-.677,2.251,2.251,0,0,1-.662-1.629,2.416,2.416,0,0,1,.317-1.142,2.244,2.244,0,0,1,.815-.814,2.186,2.186,0,0,1,1.131-.306h4.339q2.394,0,2.394,2.634a8.454,8.454,0,0,1-.153,1.574,6.25,6.25,0,0,1-.754,2.1,7.209,7.209,0,0,1-1.7,2.049,7.27,7.27,0,0,1-2.371,1.306,9.23,9.23,0,0,1-2.946.449,13.243,13.243,0,0,1-2.033-.175,9.32,9.32,0,0,1-2.771-.913,7.745,7.745,0,0,1-2.17-1.677,8.3,8.3,0,0,1-1.486-2.339,8.142,8.142,0,0,1-.645-3.148,7.92,7.92,0,0,1,1.066-3.973,8.744,8.744,0,0,1,3.011-3.1,8.937,8.937,0,0,1,4.831-1.323q.35,0,1.006.044a10.574,10.574,0,0,1,2.284.448,9.687,9.687,0,0,1,2.011.918q1.912,1.256,1.913,2.689a2.02,2.02,0,0,1-.787,1.541,1.962,1.962,0,0,1-1.344.492,3.219,3.219,0,0,1-1.235-.273h-.022l-.94-.492a4.105,4.105,0,0,0-.47-.241,6.09,6.09,0,0,0-2.546-.634,3.762,3.762,0,0,0-1.705.377,3.3,3.3,0,0,0-1.257,1.109,4.192,4.192,0,0,0-.667,1.695,2.861,2.861,0,0,0-.066.6,4.154,4.154,0,0,0,.066.743,4.222,4.222,0,0,0,.7,1.666,3.386,3.386,0,0,0,1.273,1.071,3.921,3.921,0,0,0,1.743.377A4.741,4.741,0,0,0-582.273,800.38Z" transform="translate(592.295 -788.39)" fill="#fbe6ba"/>
        </g>
        <g id="그룹_912" data-name="그룹 912">
          <path id="패스_1576" data-name="패스 1576" d="M-583.944,805.028a13.981,13.981,0,0,1-2.149-.184,10.113,10.113,0,0,1-3-.989,8.531,8.531,0,0,1-2.377-1.837,9.085,9.085,0,0,1-1.619-2.547,8.923,8.923,0,0,1-.7-3.44,8.7,8.7,0,0,1,1.163-4.342,9.527,9.527,0,0,1,3.263-3.362,9.711,9.711,0,0,1,5.228-1.437c.252,0,.6.015,1.055.045a11.407,11.407,0,0,1,2.458.481,10.526,10.526,0,0,1,2.174.992c1.516,1,2.273,2.111,2.273,3.327a2.664,2.664,0,0,1-.853,1.927c1.146.448,1.76,1.526,1.76,3.145a9.221,9.221,0,0,1-.167,1.713,6.986,6.986,0,0,1-.835,2.322,8,8,0,0,1-1.875,2.261,8.042,8.042,0,0,1-2.611,1.44A10.027,10.027,0,0,1-583.944,805.028Zm-.2-16.645a8.248,8.248,0,0,0-4.436,1.209,8.049,8.049,0,0,0-2.758,2.835,7.219,7.219,0,0,0-.968,3.6,7.439,7.439,0,0,0,.588,2.862,7.589,7.589,0,0,0,1.351,2.125,7.05,7.05,0,0,0,1.962,1.517,8.619,8.619,0,0,0,2.55.838,12.488,12.488,0,0,0,1.907.164,8.534,8.534,0,0,0,2.709-.41,6.575,6.575,0,0,0,2.131-1.171,6.511,6.511,0,0,0,1.526-1.84,5.543,5.543,0,0,0,.667-1.845,7.877,7.877,0,0,0,.145-1.463c0-1.659-.792-1.888-1.647-1.888h-4.339a1.435,1.435,0,0,0-.752.2,1.493,1.493,0,0,0-.549.546,1.657,1.657,0,0,0-.216.793,1.487,1.487,0,0,0,.45,1.082,1.433,1.433,0,0,0,1.089.452h1.345a.747.747,0,0,1,.665.406.749.749,0,0,1-.059.777,3.2,3.2,0,0,1-2.085,1.177,5.523,5.523,0,0,1-1.319.159,4.668,4.668,0,0,1-2.071-.453,4.14,4.14,0,0,1-1.549-1.3,4.992,4.992,0,0,1-.827-1.957,4.984,4.984,0,0,1-.08-.891,3.644,3.644,0,0,1,.082-.757,4.906,4.906,0,0,1,.781-1.96,4.058,4.058,0,0,1,1.538-1.355,5.613,5.613,0,0,1,4.9.248,4.46,4.46,0,0,1,.526.269l.827.433.052.018a1.633,1.633,0,0,0,1.8-.089,1.31,1.31,0,0,0,.534-.982c0-.683-.53-1.378-1.576-2.065a8.925,8.925,0,0,0-1.833-.833,9.858,9.858,0,0,0-2.115-.413C-583.6,788.4-583.925,788.383-584.141,788.383Zm-.131,4.492a3.043,3.043,0,0,0-1.372.3,2.543,2.543,0,0,0-.975.864,3.481,3.481,0,0,0-.546,1.4,2.272,2.272,0,0,0-.055.476,3.431,3.431,0,0,0,.053.61,3.506,3.506,0,0,0,.569,1.362,2.627,2.627,0,0,0,1,.839,3.108,3.108,0,0,0,1.237.3,3.117,3.117,0,0,1-.525-.434,2.981,2.981,0,0,1-.874-2.15,3.184,3.184,0,0,1,.417-1.516,2.986,2.986,0,0,1,1.082-1.082,2.93,2.93,0,0,1,1.51-.41h.687A5.406,5.406,0,0,0-584.272,792.875Z" transform="translate(593.795 -786.891)" fill="#ba5219"/>
        </g>
      </g>
    </g>
    <g id="그룹_921" data-name="그룹 921" transform="translate(-820.772 756.484)">
      <g id="그룹_917" data-name="그룹 917" transform="translate(1.212 0.19)">
        <g id="그룹_915" data-name="그룹 915" transform="translate(0.746 0.746)">
          <path id="패스_1577" data-name="패스 1577" d="M-804.773,815.807a17.248,17.248,0,0,0,6.682,4.843,13.586,13.586,0,0,0,7.741.591c4.011-.995,4.539-10.073,4.539-10.073l-13-3.528" transform="translate(804.773 -807.64)" fill="#fbe6ba"/>
        </g>
        <g id="그룹_916" data-name="그룹 916">
          <path id="패스_1578" data-name="패스 1578" d="M-793.893,821.563a14.608,14.608,0,0,1-5.244-.98,17.839,17.839,0,0,1-6.985-5.08.747.747,0,0,1,.145-1.046.746.746,0,0,1,1.045.145,16.549,16.549,0,0,0,6.355,4.6,12.946,12.946,0,0,0,7.294.563c2.632-.653,3.674-6.1,3.927-8.79l-12.4-3.366a.746.746,0,0,1-.525-.915.747.747,0,0,1,.916-.525l13,3.528a.746.746,0,0,1,.55.763c-.058.986-.688,9.658-5.1,10.754A12.33,12.33,0,0,1-793.893,821.563Z" transform="translate(806.273 -806.141)" fill="#ba5219"/>
        </g>
      </g>
      <g id="그룹_920" data-name="그룹 920">
        <g id="그룹_918" data-name="그룹 918" transform="translate(0.744 0.749)">
          <path id="패스_1579" data-name="패스 1579" d="M-804.96,816.788c-2.065-1.9-2.856-4.62-1.755-6.787,1.123-2.211,3.873-3.17,6.682-2.55" transform="translate(807.212 -807.265)" fill="#fbe6ba"/>
        </g>
        <g id="그룹_919" data-name="그룹 919">
          <path id="패스_1580" data-name="패스 1580" d="M-805.713,816.777a.745.745,0,0,1-.5-.2c-2.371-2.18-3.14-5.264-1.916-7.675,1.257-2.474,4.276-3.654,7.509-2.94a.746.746,0,0,1,.568.89.748.748,0,0,1-.89.568c-2.56-.568-4.912.3-5.856,2.158-.919,1.808-.278,4.179,1.595,5.9a.746.746,0,0,1,.044,1.055A.744.744,0,0,1-805.713,816.777Z" transform="translate(808.709 -805.759)" fill="#ba5219"/>
        </g>
      </g>
    </g>
    <g id="그룹_928" data-name="그룹 928" transform="translate(-789.764 753.816)">
      <g id="그룹_924" data-name="그룹 924" transform="translate(2.072)">
        <g id="그룹_922" data-name="그룹 922" transform="translate(0.746 0.746)">
          <path id="패스_1581" data-name="패스 1581" d="M-737,820.4a17.253,17.253,0,0,0,7.666-3.055,13.588,13.588,0,0,0,4.64-6.224c1.3-3.921-6.082-9.223-6.082-9.223l-9.932,9.093" transform="translate(740.707 -801.897)" fill="#fbe6ba"/>
        </g>
        <g id="그룹_923" data-name="그룹 923">
          <path id="패스_1582" data-name="패스 1582" d="M-737.753,820.391a.746.746,0,0,1-.743-.684.746.746,0,0,1,.682-.806,16.614,16.614,0,0,0,7.283-2.91,12.947,12.947,0,0,0,4.377-5.861c.858-2.578-3.184-6.367-5.325-8.02l-9.477,8.676a.745.745,0,0,1-1.054-.047.746.746,0,0,1,.046-1.054l9.933-9.093a.747.747,0,0,1,.939-.056c.8.576,7.792,5.748,6.355,10.065a14.253,14.253,0,0,1-4.924,6.6,17.838,17.838,0,0,1-8.028,3.184Z" transform="translate(742.207 -800.397)" fill="#ba5219"/>
        </g>
      </g>
      <g id="그룹_927" data-name="그룹 927" transform="translate(0 9.092)">
        <g id="그룹_925" data-name="그룹 925" transform="translate(0.75 0.746)">
          <path id="패스_1583" data-name="패스 1583" d="M-737.544,829.333c-2.709.729-5.431-.058-6.674-2.148-1.267-2.132-.607-4.969,1.421-7.01" transform="translate(744.864 -820.176)" fill="#fbe6ba"/>
        </g>
        <g id="그룹_926" data-name="그룹 926">
          <path id="패스_1584" data-name="패스 1584" d="M-740.27,829.592a6.051,6.051,0,0,1-5.347-2.78c-1.418-2.386-.8-5.567,1.533-7.917a.747.747,0,0,1,1.055,0,.746.746,0,0,1,0,1.056c-1.847,1.859-2.373,4.312-1.309,6.1,1.036,1.744,3.382,2.47,5.838,1.809a.746.746,0,0,1,.914.526.746.746,0,0,1-.527.914A8.31,8.31,0,0,1-740.27,829.592Z" transform="translate(746.372 -818.676)" fill="#ba5219"/>
        </g>
      </g>
    </g>
    <g id="그룹_931" data-name="그룹 931" transform="translate(-814.664 710.519)">
      <g id="그룹_929" data-name="그룹 929" transform="translate(0.742 0.746)">
        <path id="패스_1585" data-name="패스 1585" d="M-751.386,742.866a32.975,32.975,0,0,0-1.053-4.979,19.5,19.5,0,0,0-3.476-6.394,9.3,9.3,0,0,0,2.179-5.95c0-5.359-4.617-9.7-10.314-9.7a10.2,10.2,0,0,0-10.031,7.481,10.115,10.115,0,0,0-10.221-8.467,10.817,10.817,0,0,0-4.358.906,9.686,9.686,0,0,0-5.956,8.8,9.494,9.494,0,0,0,4.062,7.7c-2.6,3.622-7.628,13.011-1.379,25.285,0,0,4.121,8.522,17.19,9.113,0,0,14.374.928,20.409-7.425q.248-.342.472-.695" transform="translate(794.937 -714.853)" fill="#fbe6ba"/>
      </g>
      <g id="그룹_930" data-name="그룹 930" transform="translate(0 0)">
        <path id="패스_1586" data-name="패스 1586" d="M-774.092,766.687c-.823,0-1.344-.03-1.45-.037-13.345-.6-17.637-9.168-17.814-9.532-6.129-12.041-1.647-21.446,1.034-25.452a10.124,10.124,0,0,1-3.791-7.863,10.467,10.467,0,0,1,6.4-9.479,11.5,11.5,0,0,1,4.658-.969,11.073,11.073,0,0,1,10.35,6.784,11.083,11.083,0,0,1,9.9-5.8c6.1,0,11.061,4.688,11.061,10.449a9.932,9.932,0,0,1-1.966,5.933,20.515,20.515,0,0,1,3.231,6.2,33.43,33.43,0,0,1,1.077,5.091.746.746,0,0,1-.637.842.751.751,0,0,1-.842-.637,32.669,32.669,0,0,0-1.025-4.855,18.9,18.9,0,0,0-3.325-6.128.746.746,0,0,1-.014-.968,8.511,8.511,0,0,0,2.008-5.475c0-4.939-4.292-8.957-9.568-8.957a9.412,9.412,0,0,0-9.308,6.915.752.752,0,0,1-.765.565.747.747,0,0,1-.7-.645,9.382,9.382,0,0,0-9.482-7.821,10.03,10.03,0,0,0-4.058.843,8.977,8.977,0,0,0-5.51,8.113,8.711,8.711,0,0,0,3.752,7.1.746.746,0,0,1,.171,1.041c-2.426,3.384-7.412,12.547-1.321,24.512.168.344,4.128,8.144,16.559,8.706.153.008,14.051.8,19.771-7.117.156-.216.305-.437.448-.66a.746.746,0,0,1,1.031-.226.746.746,0,0,1,.226,1.031q-.236.369-.5.729C-759.6,766.005-770.2,766.687-774.092,766.687Z" transform="translate(796.43 -713.354)" fill="#ba5219"/>
      </g>
    </g>
    <g id="그룹_934" data-name="그룹 934" transform="translate(-819.137 711.423)">
      <g id="그룹_932" data-name="그룹 932" transform="translate(0.739 0.746)">
        <path id="패스_1587" data-name="패스 1587" d="M-761.92,739.3a19.2,19.2,0,0,0-3.379-6.217.1.1,0,0,1,0-.132,9.092,9.092,0,0,0,2.1-5.779c0-5.266-4.566-9.534-10.2-9.534a10.117,10.117,0,0,0-9.79,6.892.105.105,0,0,1-.2-.011,10.026,10.026,0,0,0-10.029-7.85c-5.631,0-10.2,4.269-10.2,9.534a9.3,9.3,0,0,0,3.933,7.51.1.1,0,0,1,.025.141c-2.583,3.617-7.436,12.794-1.306,24.764,0,0,4.074,8.373,16.995,8.954,0,0,14.211.912,20.178-7.3S-761.92,739.3-761.92,739.3Z" transform="translate(803.937 -716.669)" fill="#fbe6ba"/>
      </g>
      <g id="그룹_933" data-name="그룹 933" transform="translate(0)">
        <path id="패스_1588" data-name="패스 1588" d="M-783.333,767.6c-.814,0-1.329-.029-1.434-.036-13.2-.592-17.443-9.014-17.618-9.372-6.071-11.852-1.6-21.121,1.015-25.013a9.949,9.949,0,0,1-3.743-7.729c0-5.669,4.909-10.28,10.943-10.28a10.92,10.92,0,0,1,10.239,6.663,11.091,11.091,0,0,1,9.784-5.693c6.034,0,10.943,4.612,10.943,10.28a9.742,9.742,0,0,1-1.939,5.83,20.143,20.143,0,0,1,3.188,6.078c.2.617,4.115,13.247-1.983,21.635C-769,766.929-779.489,767.6-783.333,767.6Zm-10.835-50.937c-5.212,0-9.451,3.942-9.451,8.787a8.53,8.53,0,0,0,3.626,6.907.843.843,0,0,1,.193,1.177c-2.37,3.319-7.236,12.3-1.249,23.991.167.338,4.079,8,16.364,8.549.152.008,13.888.786,19.541-6.989,5.671-7.8,1.807-20.184,1.767-20.308l0-.012a18.579,18.579,0,0,0-3.227-5.943.846.846,0,0,1-.02-1.091,8.313,8.313,0,0,0,1.933-5.31c0-4.845-4.24-8.787-9.451-8.787A9.415,9.415,0,0,0-783.222,724a.864.864,0,0,1-.86.6.852.852,0,0,1-.79-.693A9.265,9.265,0,0,0-794.168,716.662Zm28.684,15.176,0,0Zm-19.163-8.283v0Z" transform="translate(805.422 -715.17)" fill="#ba5219"/>
      </g>
    </g>
    <g id="그룹_936" data-name="그룹 936" transform="translate(-808.633 724.854)">
      <g id="그룹_935" data-name="그룹 935" transform="translate(0 0)">
        <path id="패스_1589" data-name="패스 1589" d="M-769.082,751.081a9.411,9.411,0,0,1-4.376-1.033,9.466,9.466,0,0,1-4.387,1.033,8.4,8.4,0,0,1-6.272-2.472.746.746,0,0,1,.065-1.053.745.745,0,0,1,1.053.065,7,7,0,0,0,5.154,1.967,8.317,8.317,0,0,0,2.955-.531,4.545,4.545,0,0,1-1.633-3.362,3.388,3.388,0,0,1,1.649-3.2.68.68,0,0,1,.092-.045,3.55,3.55,0,0,1,2.873.077,3.135,3.135,0,0,1,1.568,3.094,4.642,4.642,0,0,1-1.7,3.453,8.449,8.449,0,0,0,2.955.515,7,7,0,0,0,5.154-1.967.745.745,0,0,1,1.053-.065.746.746,0,0,1,.065,1.053A8.394,8.394,0,0,1-769.082,751.081Zm-5.094-7.264a1.9,1.9,0,0,0-.854,1.879,3.3,3.3,0,0,0,1.553,2.62,3.409,3.409,0,0,0,1.644-2.7c0-1.048-.175-1.434-.815-1.8A2.092,2.092,0,0,0-774.176,743.816Z" transform="translate(784.304 -742.173)" fill="#ba5219"/>
      </g>
    </g>
    <g id="그룹_938" data-name="그룹 938" transform="translate(-807.055 736.211)">
      <g id="그룹_937" data-name="그룹 937">
        <ellipse id="타원_110" data-name="타원 110" cx="1.617" cy="4.352" rx="1.617" ry="4.352" fill="#ba5219"/>
      </g>
    </g>
    <g id="그룹_940" data-name="그룹 940" transform="translate(-791.925 736.211)">
      <g id="그룹_939" data-name="그룹 939" transform="translate(0)">
        <ellipse id="타원_111" data-name="타원 111" cx="1.617" cy="4.352" rx="1.617" ry="4.352" fill="#ba5219"/>
      </g>
    </g>
    <g id="그룹_942" data-name="그룹 942" transform="translate(-802.419 743.494)">
      <g id="그룹_941" data-name="그룹 941" transform="translate(0 0)">
        <path id="패스_1590" data-name="패스 1590" d="M-769.27,782.34a4.353,4.353,0,0,1-2.21-.7.746.746,0,0,1-.2-1.035.746.746,0,0,1,1.034-.206,2.5,2.5,0,0,0,1.717.411,1.3,1.3,0,0,0,.8-.75.762.762,0,0,1,.7-.41.747.747,0,0,1,.66.478,1.123,1.123,0,0,0,.609.542,2.635,2.635,0,0,0,1.966-.33.746.746,0,0,1,1,.343.746.746,0,0,1-.343,1,3.927,3.927,0,0,1-3.188.37,2.6,2.6,0,0,1-.718-.426,2.529,2.529,0,0,1-1.113.63A2.781,2.781,0,0,1-769.27,782.34Z" transform="translate(771.812 -779.645)" fill="#ba5219"/>
      </g>
    </g>
    <g id="그룹_944" data-name="그룹 944" transform="translate(-812.319 742.801)">
      <g id="그룹_943" data-name="그룹 943">
        <circle id="타원_112" data-name="타원 112" cx="2.216" cy="2.216" r="2.216" fill="#ba5219"/>
      </g>
    </g>
    <g id="그룹_946" data-name="그룹 946" transform="translate(-788.081 742.801)">
      <g id="그룹_945" data-name="그룹 945" transform="translate(0)">
        <circle id="타원_113" data-name="타원 113" cx="2.216" cy="2.216" r="2.216" fill="#ba5219"/>
      </g>
    </g>
    <g id="그룹_949" data-name="그룹 949" transform="translate(-829.308 738.269)">
      <g id="그룹_947" data-name="그룹 947" transform="translate(0.746 0.747)">
        <rect id="사각형_202" data-name="사각형 202" width="13.479" height="2.182" transform="matrix(0.942, -0.336, 0.336, 0.942, 0, 4.527)" fill="#fbe6ba"/>
      </g>
      <g id="그룹_948" data-name="그룹 948" transform="translate(0 0)">
        <path id="패스_1591" data-name="패스 1591" d="M-824.389,777.216a.747.747,0,0,1-.319-.072.745.745,0,0,1-.383-.423l-.733-2.055a.746.746,0,0,1,.452-.953l12.7-4.527a.744.744,0,0,1,.953.452l.733,2.055a.746.746,0,0,1-.028.57.749.749,0,0,1-.424.383l-12.7,4.528A.75.75,0,0,1-824.389,777.216Zm.221-2.349.232.65,11.289-4.027-.231-.649Z" transform="translate(825.868 -769.14)" fill="#ba5219"/>
      </g>
    </g>
    <g id="그룹_952" data-name="그룹 952" transform="translate(-828.778 736.663)">
      <g id="그룹_950" data-name="그룹 950" transform="translate(0.746 0.746)">
        <rect id="사각형_203" data-name="사각형 203" width="10.799" height="2.182" transform="matrix(0.942, -0.336, 0.336, 0.942, 0, 3.627)" fill="#fbe6ba"/>
      </g>
      <g id="그룹_951" data-name="그룹 951" transform="translate(0 0)">
        <path id="패스_1592" data-name="패스 1592" d="M-823.326,773.088a.746.746,0,0,1-.7-.5l-.733-2.055a.745.745,0,0,1,.028-.571.747.747,0,0,1,.423-.383l10.172-3.628a.746.746,0,0,1,.953.452l.733,2.055a.745.745,0,0,1-.028.57.748.748,0,0,1-.424.383l-10.172,3.627A.741.741,0,0,1-823.326,773.088Zm.22-2.349.232.649,8.766-3.126-.232-.65Z" transform="translate(824.805 -765.913)" fill="#ba5219"/>
      </g>
    </g>
    <g id="그룹_955" data-name="그룹 955" transform="translate(-827.313 740.775)">
      <g id="그룹_953" data-name="그룹 953" transform="translate(0.746 0.746)">
        <path id="패스_1593" data-name="패스 1593" d="M-807.546,786.436l-8.013,2.857-4.8-9.989,10.172-3.627Z" transform="translate(820.358 -775.678)" fill="#fbe6ba"/>
      </g>
      <g id="그룹_954" data-name="그룹 954" transform="translate(0)">
        <path id="패스_1594" data-name="패스 1594" d="M-816.313,789.287a.746.746,0,0,1-.672-.423l-4.8-9.989a.746.746,0,0,1-.017-.607.745.745,0,0,1,.439-.419l10.172-3.627a.749.749,0,0,1,.6.046.75.75,0,0,1,.371.479l2.639,10.759a.747.747,0,0,1-.474.881l-8.013,2.858A.761.761,0,0,1-816.313,789.287Zm-3.767-10.311,4.149,8.637,6.746-2.406-2.282-9.3Z" transform="translate(821.858 -774.179)" fill="#ba5219"/>
      </g>
    </g>
    <g id="그룹_957" data-name="그룹 957" transform="translate(-823.968 731.992)">
      <g id="그룹_956" data-name="그룹 956" transform="translate(0)">
        <path id="패스_1595" data-name="패스 1595" d="M-811.308,757.035a.773.773,0,0,0-.988-.469l-1.561.557-.763.272a.773.773,0,0,0-.469.988l.26.728,1.289,3.616a.773.773,0,0,0,.988.469l.035-.012a.773.773,0,0,0,.469-.988l-1.03-2.888a.773.773,0,0,1,.469-.988l.832-.3a.774.774,0,0,0,.469-.988Z" transform="translate(815.134 -756.521)" fill="#ba5219"/>
      </g>
    </g>
    <g id="그룹_960" data-name="그룹 960" transform="translate(-818.643 743.493)">
      <g id="그룹_958" data-name="그룹 958" transform="translate(0.372 0.315)">
        <ellipse id="타원_114" data-name="타원 114" cx="2.301" cy="1.912" rx="2.301" ry="1.912" transform="translate(0 0.993) rotate(-12.467)" fill="#fbe6ba"/>
      </g>
      <g id="그룹_959" data-name="그룹 959" transform="translate(0 0)">
        <path id="패스_1596" data-name="패스 1596" d="M-801.578,785a3.175,3.175,0,0,1-1.457-.344,2.488,2.488,0,0,1-1.337-1.677,2.485,2.485,0,0,1,.505-2.084,3.282,3.282,0,0,1,1.9-1.169,3.279,3.279,0,0,1,2.212.261,2.486,2.486,0,0,1,1.337,1.677h0a2.875,2.875,0,0,1-2.4,3.253A3.539,3.539,0,0,1-801.578,785Zm.366-3.865a2.018,2.018,0,0,0-.435.048,1.793,1.793,0,0,0-1.039.627,1.022,1.022,0,0,0-.227.847,1.024,1.024,0,0,0,.563.672,1.79,1.79,0,0,0,1.206.13c.823-.182,1.4-.857,1.266-1.474a1.022,1.022,0,0,0-.563-.672A1.679,1.679,0,0,0-801.212,781.136Z" transform="translate(804.428 -779.644)" fill="#ba5219"/>
      </g>
    </g>
    <g id="그룹_963" data-name="그룹 963" transform="translate(-827 749.672)">
      <g id="그룹_961" data-name="그룹 961" transform="translate(0.746 0.746)">
        <path id="패스_1597" data-name="패스 1597" d="M-813.326,794.961c-.059.868-1.734,1.706-3.433,1.592s-3.027-.91-2.969-1.777c.044-.661.118-.915,1.205-1.195a12.259,12.259,0,0,1,1.993.25,21.543,21.543,0,0,1,2.256-.076C-813.3,794.029-813.285,794.343-813.326,794.961Z" transform="translate(819.73 -793.565)" fill="#fbe6ba"/>
      </g>
      <g id="그룹_962" data-name="그룹 962" transform="translate(0 0)">
        <path id="패스_1598" data-name="패스 1598" d="M-817.212,796.556c-.118,0-.235,0-.351-.011a5.65,5.65,0,0,1-2.477-.71,2.061,2.061,0,0,1-1.187-1.861c.074-1.1.486-1.538,1.763-1.867a4.35,4.35,0,0,1,1.643.131c.227.042.484.089.586.1a7.571,7.571,0,0,0,.812-.047,5.053,5.053,0,0,1,1.6,0c1.326.372,1.553,1.031,1.49,1.974h0C-813.429,795.634-815.388,796.556-817.212,796.556Zm-1.884-3h-.036a1.6,1.6,0,0,0-.581.221c-.006.029-.02.229-.024.294s.116.272.465.48a4.2,4.2,0,0,0,1.81.5,3.026,3.026,0,0,0,2.638-.9c0-.061.013-.2.009-.28a1.742,1.742,0,0,0-.414-.156,8.107,8.107,0,0,0-1.064.051,7.512,7.512,0,0,1-1.04.05c-.186-.012-.45-.061-.755-.117A8.7,8.7,0,0,0-819.1,793.557Zm5.016.651h0Z" transform="translate(821.23 -792.066)" fill="#ba5219"/>
      </g>
    </g>
    <g id="그룹_966" data-name="그룹 966" transform="translate(-827.491 747.54)">
      <g id="그룹_964" data-name="그룹 964" transform="translate(0.746 0.746)">
        <path id="패스_1599" data-name="패스 1599" d="M-813.333,790.89c-.068,1-2,1.967-3.957,1.835s-3.491-1.049-3.424-2.049c.051-.762.136-1.055,1.389-1.377a14.088,14.088,0,0,1,2.3.288,24.812,24.812,0,0,1,2.6-.087C-813.3,789.814-813.285,790.177-813.333,790.89Z" transform="translate(820.716 -789.28)" fill="#fbe6ba"/>
      </g>
      <g id="그룹_965" data-name="그룹 965" transform="translate(0 0)">
        <path id="패스_1600" data-name="패스 1600" d="M-817.689,792.729c-.136,0-.272,0-.406-.013a6.4,6.4,0,0,1-2.8-.8,2.269,2.269,0,0,1-1.314-2.04c.082-1.222.519-1.682,1.948-2.05a4.978,4.978,0,0,1,1.847.154c.265.048.564.1.687.112a9.4,9.4,0,0,0,.954-.055,5.827,5.827,0,0,1,1.8-.006c1.462.411,1.707,1.1,1.636,2.159a2.587,2.587,0,0,1-1.693,1.965A6.311,6.311,0,0,1-817.689,792.729Zm-2.182-3.458-.052,0c-.652.17-.74.286-.743.291a1.391,1.391,0,0,0-.058.409c-.01.146.169.407.591.66a4.965,4.965,0,0,0,2.138.594,4.779,4.779,0,0,0,2.318-.423c.622-.3.839-.611.846-.718h0a1.94,1.94,0,0,0,0-.406,2.21,2.21,0,0,0-.551-.216,8.381,8.381,0,0,0-1.267.056,9.411,9.411,0,0,1-1.182.058c-.208-.015-.509-.07-.857-.134A10.045,10.045,0,0,0-819.871,789.271Z" transform="translate(822.217 -787.78)" fill="#ba5219"/>
      </g>
    </g>
    <g id="그룹_969" data-name="그룹 969" transform="translate(-827.818 745.079)">
      <g id="그룹_967" data-name="그룹 967" transform="translate(0.746 0.746)">
        <path id="패스_1601" data-name="패스 1601" d="M-813.367,785.776c0,1.087-2.021,2.275-4.151,2.275s-3.855-.881-3.855-1.969c0-.828.071-1.151,1.4-1.592a15.363,15.363,0,0,1,2.508.144,26.953,26.953,0,0,1,2.81-.283C-813.413,784.61-813.367,785-813.367,785.776Z" transform="translate(821.373 -784.332)" fill="#fbe6ba"/>
      </g>
      <g id="그룹_968" data-name="그룹 968" transform="translate(0)">
        <path id="패스_1602" data-name="패스 1602" d="M-818.271,788.044c-2.623,0-4.6-1.167-4.6-2.715,0-1.154.277-1.759,1.916-2.3a5.352,5.352,0,0,1,1.983.035c.306.035.622.071.76.071a10.009,10.009,0,0,0,1.038-.129,6.261,6.261,0,0,1,1.925-.138c1.578.33,1.877,1.012,1.877,2.156C-813.375,786.751-815.96,788.044-818.271,788.044Zm-2.085-3.6a.853.853,0,0,0-.156.01c-.868.288-.868.288-.868.878,0,.486,1.24,1.223,3.109,1.223,1.967,0,3.4-1.073,3.4-1.529a1.922,1.922,0,0,0-.035-.468s-.1-.111-.656-.228a9.042,9.042,0,0,0-1.392.153,9.635,9.635,0,0,1-1.265.147c-.223,0-.551-.038-.93-.082C-819.479,784.506-820.05,784.441-820.356,784.441Z" transform="translate(822.873 -782.831)" fill="#ba5219"/>
      </g>
    </g>
    <g id="그룹_971" data-name="그룹 971" transform="translate(-815.611 757.418)">
      <g id="그룹_970" data-name="그룹 970" transform="translate(0)">
        <path id="패스_1603" data-name="패스 1603" d="M-795.57,807.638a8.463,8.463,0,0,1,2.005.722c3.406,1.73,5.038,5.355,3.646,8.094l-8.414-5.133Z" transform="translate(798.333 -807.638)" fill="#fbe6ba"/>
      </g>
    </g>
    <g id="그룹_974" data-name="그룹 974" transform="translate(-813.949 756.603)">
      <g id="그룹_972" data-name="그룹 972" transform="translate(0.746 0.746)">
        <path id="패스_1604" data-name="패스 1604" d="M-793.491,807.5a11.477,11.477,0,0,1,2.359.792c3.406,1.731,5.038,5.355,3.646,8.094" transform="translate(793.491 -807.498)" fill="#fbe6ba"/>
      </g>
      <g id="그룹_973" data-name="그룹 973" transform="translate(0 0)">
        <path id="패스_1605" data-name="패스 1605" d="M-788.24,816.377a.732.732,0,0,1-.337-.081.746.746,0,0,1-.327-1c1.2-2.369-.286-5.55-3.319-7.092a10.831,10.831,0,0,0-2.183-.728.746.746,0,0,1-.568-.89.75.75,0,0,1,.89-.568,12.126,12.126,0,0,1,2.536.856c3.767,1.915,5.549,6,3.973,9.1A.746.746,0,0,1-788.24,816.377Z" transform="translate(794.992 -805.999)" fill="#ba5219"/>
      </g>
    </g>
    <g id="그룹_977" data-name="그룹 977" transform="translate(-787.693 760.442)">
      <g id="그룹_975" data-name="그룹 975" transform="translate(0.746 0.74)">
        <path id="패스_1606" data-name="패스 1606" d="M-740.708,817.678a8.443,8.443,0,0,1,1.683-1.308c3.284-1.952,7.219-1.392,8.789,1.25" transform="translate(740.708 -815.206)" fill="#f5e7d1"/>
      </g>
      <g id="그룹_976" data-name="그룹 976" transform="translate(0 0)">
        <path id="패스_1607" data-name="패스 1607" d="M-741.462,817.677a.744.744,0,0,1-.526-.217.746.746,0,0,1,0-1.055,9.17,9.17,0,0,1,1.831-1.424c3.633-2.159,8.034-1.482,9.812,1.51a.746.746,0,0,1-.26,1.023.745.745,0,0,1-1.023-.26c-1.357-2.285-4.841-2.728-7.767-.99a7.74,7.74,0,0,0-1.534,1.192A.742.742,0,0,1-741.462,817.677Z" transform="translate(742.208 -813.718)" fill="#652d12"/>
      </g>
    </g>
    <g id="그룹_980" data-name="그룹 980" transform="translate(-787.693 760.442)">
      <g id="그룹_978" data-name="그룹 978" transform="translate(0.746 0.74)">
        <path id="패스_1608" data-name="패스 1608" d="M-740.708,817.678a8.443,8.443,0,0,1,1.683-1.308c3.284-1.952,7.219-1.392,8.789,1.25" transform="translate(740.708 -815.206)" fill="#fbe6ba"/>
      </g>
      <g id="그룹_979" data-name="그룹 979" transform="translate(0 0)">
        <path id="패스_1609" data-name="패스 1609" d="M-741.462,817.677a.744.744,0,0,1-.526-.217.746.746,0,0,1,0-1.055,9.17,9.17,0,0,1,1.831-1.424c3.633-2.159,8.034-1.482,9.812,1.51a.746.746,0,0,1-.26,1.023.745.745,0,0,1-1.023-.26c-1.357-2.285-4.841-2.728-7.767-.99a7.74,7.74,0,0,0-1.534,1.192A.742.742,0,0,1-741.462,817.677Z" transform="translate(742.208 -813.718)" fill="#ba5219"/>
      </g>
    </g>
    <g id="그룹_982" data-name="그룹 982" transform="translate(-770.477 752.894)">
      <g id="그룹_981" data-name="그룹 981">
        <path id="패스_1610" data-name="패스 1610" d="M-707.6,798.544" transform="translate(707.597 -798.544)" fill="#f5e7d1" stroke="#652d12" stroke-linecap="round" stroke-linejoin="round" stroke-width="3"/>
      </g>
    </g>
    <g id="그룹_984" data-name="그룹 984" transform="translate(-774.36 735.624)">
      <g id="그룹_983" data-name="그룹 983" transform="translate(0 0)">
        <path id="패스_1611" data-name="패스 1611" d="M-711.7,767.755a.744.744,0,0,1-.527-.218,18.266,18.266,0,0,0-2.829-2.334.746.746,0,0,1-.237-1.028.746.746,0,0,1,1.027-.238,19.417,19.417,0,0,1,3.092,2.543.746.746,0,0,1,0,1.055A.743.743,0,0,1-711.7,767.755Z" transform="translate(715.403 -763.824)" fill="#ba5219"/>
      </g>
    </g>
    <g id="그룹_996" data-name="그룹 996" transform="translate(-778.579 738.981)">
      <g id="그룹_986" data-name="그룹 986" transform="translate(8.405 12.966)">
        <g id="그룹_985" data-name="그룹 985">
          <path id="패스_1612" data-name="패스 1612" d="M-706.119,796.638a3.968,3.968,0,0,1-.868,1.633" transform="translate(706.987 -796.638)" fill="#fbe6ba"/>
        </g>
      </g>
      <g id="그룹_995" data-name="그룹 995" transform="translate(0 0)">
        <g id="그룹_988" data-name="그룹 988">
          <g id="그룹_987" data-name="그룹 987">
            <path id="패스_1613" data-name="패스 1613" d="M-718.36,786.555a3.573,3.573,0,0,1-2.992-1.363,3.633,3.633,0,0,1-.3-3.9l-.043-1.17a4.01,4.01,0,0,1-1.806-1.882,3.767,3.767,0,0,1,1.659-5.057,3.634,3.634,0,0,1,3.87.561l2.186-3.172a15.91,15.91,0,0,1,4.625,8.253c1.2,6.713-4.625,6.655-4.625,6.655" transform="translate(723.885 -770.572)" fill="#fbe6ba"/>
          </g>
        </g>
        <g id="그룹_990" data-name="그룹 990" transform="translate(5.525 14.909)">
          <g id="그룹_989" data-name="그룹 989">
            <path id="패스_1614" data-name="패스 1614" d="M-710.2,800.544q-.13.119-.273.23a4.019,4.019,0,0,1-2.3.845" transform="translate(712.778 -800.544)" fill="#fbe6ba"/>
          </g>
        </g>
        <g id="그룹_992" data-name="그룹 992" transform="translate(8.102 14.843)">
          <g id="그룹_991" data-name="그룹 991">
            <path id="패스_1615" data-name="패스 1615" d="M-707.527,800.412l-.07.066" transform="translate(707.597 -800.412)" fill="#fbe6ba"/>
          </g>
        </g>
        <g id="그룹_994" data-name="그룹 994" transform="translate(8.172 14.599)">
          <g id="그룹_993" data-name="그룹 993">
            <path id="패스_1616" data-name="패스 1616" d="M-707.223,799.921c-.074.084-.152.166-.233.244" transform="translate(707.456 -799.921)" fill="#fbe6ba"/>
          </g>
        </g>
      </g>
    </g>
    <g id="그룹_1013" data-name="그룹 1013" transform="translate(-779.326 738.235)">
      <g id="그룹_999" data-name="그룹 999" transform="translate(8.407 12.965)">
        <g id="그룹_997" data-name="그룹 997" transform="translate(0.746 0.746)">
          <path id="패스_1617" data-name="패스 1617" d="M-706.119,796.638a3.968,3.968,0,0,1-.868,1.633" transform="translate(706.987 -796.638)" fill="#fbe6ba"/>
        </g>
        <g id="그룹_998" data-name="그룹 998">
          <path id="패스_1618" data-name="패스 1618" d="M-707.741,798.263a.744.744,0,0,1-.493-.186.746.746,0,0,1-.067-1.053,3.241,3.241,0,0,0,.705-1.326.746.746,0,0,1,.908-.537.746.746,0,0,1,.537.908,4.739,4.739,0,0,1-1.031,1.94A.743.743,0,0,1-707.741,798.263Z" transform="translate(708.487 -795.138)" fill="#ba5219"/>
        </g>
      </g>
      <g id="그룹_1012" data-name="그룹 1012">
        <g id="그룹_1002" data-name="그룹 1002" transform="translate(0 2.281)">
          <g id="그룹_1000" data-name="그룹 1000" transform="translate(0.747 0.75)">
            <path id="패스_1619" data-name="패스 1619" d="M-721.691,782.431a4.009,4.009,0,0,1-1.806-1.882,3.767,3.767,0,0,1,1.659-5.057,3.634,3.634,0,0,1,3.87.561" transform="translate(723.885 -775.165)" fill="#fbe6ba"/>
          </g>
          <g id="그룹_1001" data-name="그룹 1001">
            <path id="패스_1620" data-name="패스 1620" d="M-722.447,782.419a.734.734,0,0,1-.337-.081,4.773,4.773,0,0,1-2.144-2.231,4.716,4.716,0,0,1-.228-3.483,4.258,4.258,0,0,1,2.246-2.565,4.352,4.352,0,0,1,4.664.663.746.746,0,0,1,.1,1.051.746.746,0,0,1-1.051.1,2.874,2.874,0,0,0-3.076-.458,2.779,2.779,0,0,0-1.462,1.679,3.234,3.234,0,0,0,.162,2.386,3.284,3.284,0,0,0,1.469,1.534.746.746,0,0,1,.327,1A.746.746,0,0,1-722.447,782.419Z" transform="translate(725.387 -773.657)" fill="#ba5219"/>
          </g>
        </g>
        <g id="그룹_1005" data-name="그룹 1005" transform="translate(1.804 10.721)">
          <g id="그룹_1003" data-name="그룹 1003" transform="translate(0.751 0.747)">
            <path id="패스_1621" data-name="패스 1621" d="M-716.534,797.388a3.573,3.573,0,0,1-2.992-1.363,3.633,3.633,0,0,1-.3-3.9" transform="translate(720.251 -792.126)" fill="#fbe6ba"/>
          </g>
          <g id="그룹_1004" data-name="그룹 1004">
            <path id="패스_1622" data-name="패스 1622" d="M-717.443,797.382a4.276,4.276,0,0,1-3.432-1.655,4.356,4.356,0,0,1-.369-4.7.745.745,0,0,1,1-.322.746.746,0,0,1,.323,1,2.876,2.876,0,0,0,.223,3.1,2.821,2.821,0,0,0,2.374,1.073.735.735,0,0,1,.773.717.746.746,0,0,1-.717.774C-717.324,797.381-717.384,797.382-717.443,797.382Z" transform="translate(721.76 -790.625)" fill="#ba5219"/>
          </g>
        </g>
        <g id="그룹_1008" data-name="그룹 1008" transform="translate(5.526 14.599)">
          <g id="그룹_1006" data-name="그룹 1006" transform="translate(0.746 0.746)">
            <path id="패스_1623" data-name="패스 1623" d="M-709.9,799.921a4.145,4.145,0,0,1-.576.54,4.019,4.019,0,0,1-2.3.845" transform="translate(712.778 -799.921)" fill="#fbe6ba"/>
          </g>
          <g id="그룹_1007" data-name="그룹 1007">
            <path id="패스_1624" data-name="패스 1624" d="M-713.532,801.3a.746.746,0,0,1-.745-.718.746.746,0,0,1,.718-.773,3.257,3.257,0,0,0,1.876-.69,3.351,3.351,0,0,0,.472-.441.747.747,0,0,1,1.053-.068.746.746,0,0,1,.068,1.053,4.852,4.852,0,0,1-.68.637,4.738,4.738,0,0,1-2.733,1Z" transform="translate(714.278 -798.422)" fill="#ba5219"/>
          </g>
        </g>
        <g id="그룹_1011" data-name="그룹 1011" transform="translate(8.103)">
          <g id="그룹_1009" data-name="그룹 1009" transform="translate(0.746 0.746)">
            <path id="패스_1625" data-name="패스 1625" d="M-707.6,785.481s5.827.057,4.625-6.655a15.91,15.91,0,0,0-4.625-8.253" transform="translate(707.597 -770.572)" fill="#fbe6ba"/>
          </g>
          <g id="그룹_1010" data-name="그룹 1010">
            <path id="패스_1626" data-name="패스 1626" d="M-708.345,785.473h-.013a.746.746,0,0,1-.739-.754.756.756,0,0,1,.751-.739,4.538,4.538,0,0,0,3.163-1.391c.825-.983,1.068-2.459.723-4.387a15.25,15.25,0,0,0-4.417-7.856.746.746,0,0,1,0-1.055.746.746,0,0,1,1.055,0,16.725,16.725,0,0,1,4.833,8.65c.428,2.392.072,4.284-1.06,5.623A5.991,5.991,0,0,1-708.345,785.473Z" transform="translate(709.097 -769.072)" fill="#ba5219"/>
          </g>
        </g>
      </g>
    </g>
    <g id="그룹_1016" data-name="그룹 1016" transform="translate(-777.328 746.124)">
      <g id="그룹_1014" data-name="그룹 1014" transform="translate(0.337 0.465)">
        <ellipse id="타원_115" data-name="타원 115" cx="1.161" cy="1.99" rx="1.161" ry="1.99" transform="translate(0 0.614) rotate(-15.347)" fill="#ba5219"/>
      </g>
      <g id="그룹_1015" data-name="그룹 1015" transform="translate(0 0)">
        <path id="패스_1627" data-name="패스 1627" d="M-719.05,790.315c-.921,0-1.812-.867-2.174-2.186a3.59,3.59,0,0,1-.046-1.836,1.729,1.729,0,0,1,1.161-1.307c1.049-.287,2.15.63,2.563,2.134a3.589,3.589,0,0,1,.046,1.836,1.727,1.727,0,0,1-1.16,1.306A1.451,1.451,0,0,1-719.05,790.315Zm-.677-3.888a1.655,1.655,0,0,0-.058,1.307c.2.737.618,1.081.742,1.088a1.658,1.658,0,0,0,.058-1.307h0C-719.188,786.778-719.6,786.433-719.728,786.427Z" transform="translate(721.369 -784.933)" fill="#ba5218"/>
      </g>
    </g>
  </g>
</svg>
