<svg xmlns="http://www.w3.org/2000/svg" width="21.9" height="21.9" viewBox="0 0 21.9 21.9">
  <path id="패스_3" data-name="패스 3" d="M11,22.95v-2a8.755,8.755,0,0,1-5.362-2.588A8.755,8.755,0,0,1,3.05,13h-2V11h2A8.76,8.76,0,0,1,5.638,5.637,8.759,8.759,0,0,1,11,3.05v-2h2v2a8.764,8.764,0,0,1,5.363,2.587A8.764,8.764,0,0,1,20.95,11h2v2h-2a8.759,8.759,0,0,1-2.587,5.362A8.76,8.76,0,0,1,13,20.95v2ZM12,19a6.745,6.745,0,0,0,4.95-2.05A6.745,6.745,0,0,0,19,12a6.745,6.745,0,0,0-2.05-4.95A6.745,6.745,0,0,0,12,5,6.745,6.745,0,0,0,7.05,7.05,6.745,6.745,0,0,0,5,12a6.745,6.745,0,0,0,2.05,4.95A6.745,6.745,0,0,0,12,19Zm0-3a4.012,4.012,0,0,1-4-4,4.012,4.012,0,0,1,4-4,4.012,4.012,0,0,1,4,4,4.012,4.012,0,0,1-4,4Zm0-2a2,2,0,0,0,1.413-3.413,2,2,0,1,0-2.825,2.825A1.923,1.923,0,0,0,12,14Z" transform="translate(-1.05 -1.05)" fill="#ba5219"/>
</svg>
