<svg xmlns="http://www.w3.org/2000/svg" width="30.424" height="46" viewBox="0 0 30.424 46">
  <g id="그룹_4435" data-name="그룹 4435" transform="translate(-316.297 -216.171)">
    <path id="패스_5135" data-name="패스 5135" d="M331.367,216.172a14.947,14.947,0,0,1,15.006,11.807,15.634,15.634,0,0,1-.768,9.036,83.82,83.82,0,0,1-5.592,11.494c-2.555,4.529-5.337,8.92-8.1,13.325-.273.436-.52.45-.784.036-3.524-5.54-7.031-11.091-10.1-16.9a47.384,47.384,0,0,1-4.01-9.184c-1.728-6.142-.407-11.522,4.343-15.9a14.269,14.269,0,0,1,7.565-3.5A17.8,17.8,0,0,1,331.367,216.172Zm7.288,14.8a7.182,7.182,0,1,0-7.2,7.061A7.118,7.118,0,0,0,338.655,230.972Z" transform="translate(0 0)" fill="#c66826"/>
  </g>
</svg>
