<svg xmlns="http://www.w3.org/2000/svg" width="85.779" height="102.402" viewBox="0 0 85.779 102.402">
  <g id="그룹_5281" data-name="그룹 5281" transform="translate(-1483.111 -6521)">
    <path id="패스_5636" data-name="패스 5636" d="M-509.023,1282.886s-1.948-7.472-6.584-12.792a.206.206,0,0,1,0-.266,23.336,23.336,0,0,0,4.886-13.139c0-10.586-9.054-19-20.375-19-9.349,0-18.008,7.21-20.472,15.209a.211.211,0,0,1-.412-.023c-1.711-8.968-10.077-15.782-20.161-15.782-11.322,0-20.5,8.582-20.5,19.167a18.706,18.706,0,0,0,7.905,15.1.2.2,0,0,1,.052.284c-5.193,7.27-14.95,25.721-2.625,49.785,0,0,8.19,16.833,34.165,18,0,0,26.17,1.917,38.166-14.583S-509.023,1282.886-509.023,1282.886Z" transform="translate(2076.394 5283.907)" fill="#ba5219"/>
    <path id="다각형_1" data-name="다각형 1" d="M5.5,0,11,10H0Z" transform="translate(1520 6554)" fill="#fff"/>
  </g>
</svg>
